<svg xmlns:dc="http://purl.org/dc/elements/1.1/" xmlns:cc="http://creativecommons.org/ns#" xmlns:rdf="http://www.w3.org/1999/02/22-rdf-syntax-ns#" xmlns:svg="http://www.w3.org/2000/svg" xmlns="http://www.w3.org/2000/svg" xmlns:sodipodi="http://sodipodi.sourceforge.net/DTD/sodipodi-0.dtd" xmlns:inkscape="http://www.inkscape.org/namespaces/inkscape" version="1.1" id="svg2" xml:space="preserve" width="320" height="300" viewBox="0 0 320 300" sodipodi:docname="Gary standard.svg" inkscape:version="0.92">
  <metadata id="metadata8">
    <rdf:RDF>
      <cc:Work rdf:about="">
        <dc:format>
          image/svg+xml
        </dc:format>
        <dc:type rdf:resource="http://purl.org/dc/dcmitype/StillImage"/>
      </cc:Work>
    </rdf:RDF>
  </metadata>
  <defs id="defs6">
    <clipPath clipPathUnits="userSpaceOnUse" id="clipPath18">
      <path d="M0 792H1224V0H0Z" id="path16" inkscape:connector-curvature="0"/>
    </clipPath>
  </defs>
  <sodipodi:namedview pagecolor="#ffffff" bordercolor="#666666" borderopacity="1" objecttolerance="10" gridtolerance="10" guidetolerance="10" inkscape:pageopacity="0" inkscape:pageshadow="2" inkscape:window-width="1414" inkscape:window-height="757" id="namedview4" showgrid="false" fit-margin-top="0" fit-margin-left="0" fit-margin-right="0" fit-margin-bottom="0" inkscape:zoom="1" inkscape:cx="133.72" inkscape:cy="132.34" inkscape:window-x="0" inkscape:window-y="0" inkscape:window-maximized="0" inkscape:current-layer="g10"/>
  <g id="g10" inkscape:groupmode="layer" inkscape:label="gare" transform="matrix(1.3333333,0,0,-1.3333333,-1339.6161,775.65945)">
    <g id="g12" transform="matrix(3,0,0,3,-2235.3571,-920.6531)">
      <g id="g14" clip-path="url(#clipPath18)">
        <g id="g20" transform="translate(1149.8652,439.0391)">
          <path d="m0 0c-0.46 3.22-0.5 6.45-0.19 9.67 0.34 6.43 0.95 13.13 1.67 19.66 0.49 3.08 0.91 6.11 1.16 9.17 1.48 0.57 3.01 1.52 3.94 2.93 2.21 2.7 2.74 6.47 0.91 9.61-1.83 3.23-5.5 4.89-8.94 4.26-4.49-0.88-7.71-5.61-6.93-10.12 0.4-2.72 2.66-5.63 5.46-6.49 0.4-3.12 0.82-6.26 0.51-9.4-0.23-5.27-0.38-10.54-0.91-15.83-0.4-3.73-1.15-10.68-1.97-12.74 0 0-1.05 0.34-1.17-0.12-1.01 2.74-2.06 5.46-2.78 8.3-1.29 6.2-2.57 12.33-3.84 18.51-0.55 3.86-1.5 7.65-1.52 11.53 2.78 2.57 4.47 6.62 2.97 10.54-0.76 2.44-3.06 4.45-5.35 5.46-3.31 1.26-8.65-0.04-10.43-3.44-3.69 4.55-8.98 7.62-14.42 8.18-1.72 0.18-2.79 0.07-4.74-0.15-5.67-0.63-10.18-4.41-14.23-8.13-4.64-4.68-7.04-11.17-7.42-17.66-0.23-4.87 0.27-9.89 1.67-14.67 1.08-3.16 2.34-6.24 3.79-9.29 1.69-3.08 3.42-6.3 5.67-9.11-0.89-1.14-0.57-2.57 0.15-3.6-1.98-1.48-6.51 0.1-6.28-3.03 0.46-0.95 1.77-1.88 2.28-1.88 0.91 0.3 1.96 0.51 2.89 0.42 1.29-0.63 1.48-1.81 2.99-2.13 2.19-0.24 5.04 0.84 6.37-0.13 3.93-1.95 6.61-1.39 10.13-0.76 1.06 0.27 1.65 0.81 3.31 0.74 1.15-0.2 1.46-0.63 2.53-0.93 2.26 0 4.62 0.23 6.79 1.08 1.5 0.13 2.82-0.7 4.15-1.41 3.33-1.1 6.26 1.2 9.51 0.95 0.89-0.34 1.71-0.36 2.64-0.51 3.67-0.44 9.05 2.72 10.56 1.92 0.15-0.27 0.7-0.42 1.12-0.44 2.11-0.25 4.05 1.37 5.31 3.04 0.25 0.46 0.91 0.68 0.97 1.16C7.36-4.2 6.09-4.7 5.12-4.05 2.97-3.27 2.34-0.61 0 0m-16.84 1.08c-0.74 2.4-3.27 4.17-5.56 4.49 1.31 6.24 2.38 12.44 2.99 18.72 0.15 3.14 0.38 6.24-0.21 9.32 2.11-3.94 3.14-8.37 4.09-12.75 0.27-3.01 0.78-6.03 1.18-9.04 0.34-3.46 0.27-6.91 0.3-10.37-0.78-0.46-1.83-0.36-2.78-0.36" id="path22" inkscape:connector-curvature="0" style="fill-rule:nonzero;fill:#231f20"/>
        </g>
        <g id="g24" transform="translate(1105.6055,497.6318)">
          <path d="m0 0c1.73 0.08 3.54 0.08 5.21-0.21 1.33-0.42 2.63-0.91 3.96-1.47 2.72-1.52 5.14-3.65 7.12-6.07-1.85-3.58-1.43-8.26 1.41-11.21 1.62-1.31 3.12-2.38 5.12-2.63 1.9-7.14 0.44-14.52-0.31-21.71-0.57-3.46-1.16-6.89-1.45-10.37 1.54 0.27 4.26-1.45 4.89-3.58-0.59-0.04-4.19 0.54-6.91-0.82-2.09-1.52-4.24-3.03-6.74-3.62-2.76-0.67-5.57 0.21-8.35 0.3 3.2 6.66 2.53 14.25 0.76 21.14-0.84 3.52-1.79 6.98-3.37 10.27-1.71 2.82-4.05 5.67-7.4 6.18-1.92 0.4-4.49 0.23-5.86-1.81-1.77-2.36-2.38-4.97-2.74-7.8-0.08-1.92 0.11-3.21 0.65-5.96 0.38-1.62 1.01-3.16 1.98-4.59 0.76-1.37 2.11-3.25 3.79-3.35 2.19-0.06 3.39 2.34 2.89 4.2-0.59 1.64-1.09 3.69-2.23 4.76-0.57-0.99 0.44-2.74-1.05-3.18-1.52 0.06-2.05 1.79-2.49 2.93-0.3 2.51-1.14 5.69 0.97 7.88 0.76 1.08 2.36 0.91 3.39 0.61 3.94-1.98 4.51-6.66 5.71-10.41 0.93-3.86 1.9-7.71 2.03-11.7-0.21-1.86-0.72-3.75-1.52-5.5-0.51-0.74-0.61-1.77-1.26-2.42-2.17 0.23-4.41 0.36-6.53-0.1-1.45-0.19-3.79-1.07-3.94 0.5 0.06 0.65 0.27 1.39 0.8 1.92-3.31 4.53-6.11 9.4-8.09 14.63-1.9 4.19-2.81 7.63-3.37 12.39-0.44 3.6-0.02 6.85 0.51 10.41 0.4 1.6 0.89 3.18 1.41 4.76 0.3 1.39 1.08 2.44 1.71 3.69C-14.92-5.73-8.09-0.17 0 0" id="path26" inkscape:connector-curvature="0" style="fill-rule:nonzero;fill:#fabec1"/>
        </g>
        <g id="g28" transform="translate(1137.4316,488.7798)">
          <path d="m0 0c1.1-3.06 0.57-6.56-1.62-9.02-2.23-2.3-5.84-3.06-8.89-2.07-2.93 0.99-5.1 3.9-5.42 6.93-0.15 3.29 1.39 6.51 4.41 8.14 2.8 1.69 6.51 1.1 9.04-0.8C-1.43 2.34-0.57 1.16 0 0" id="path30" inkscape:connector-curvature="0" style="fill-rule:nonzero;fill:#d8eea9"/>
        </g>
        <g id="g32" transform="translate(1150.4375,493.7329)">
          <path d="M0 0C4.21-0.19 7.55-4.22 7.23-8.35 6.98-11.02 5.35-13.7 2.78-14.82c-0.67-0.3-1.45-0.46-2.13-0.67-3.12-0.4-6.32 1.07-7.94 3.96-1.6 2.78-1.05 6.51 1.05 8.94C-4.62-0.99-2.34 0.23 0 0" id="path34" inkscape:connector-curvature="0" style="fill-rule:nonzero;fill:#d8eea9"/>
        </g>
        <g id="g36" transform="translate(1135.5967,489.728)">
          <path d="m0 0c1.01-1.39 1.16-3.62 0.25-5.1-0.57-1.03-1.66-1.66-2.86-1.52-1.1 0.27-2.19 0.93-2.64 2.07-0.53 1.65-0.65 3.35 0.55 4.76C-3.39 1.54-1.16 1.62 0 0" id="path38" inkscape:connector-curvature="0" style="fill-rule:nonzero;fill:#f47028"/>
        </g>
        <g id="g40" transform="translate(1134.1445,490.1919)">
          <path d="M0 0C1.31-0.69 1.71-2.34 1.56-3.65 1.6-4.99 0.55-6.32-0.57-6.3-1.45-6.58-3.87-5.64-3.54-2.23-3.39-0.73-1.62 0.74 0 0" id="path42" inkscape:connector-curvature="0" style="fill-rule:nonzero;fill:#f47028"/>
        </g>
        <g id="g44" transform="translate(1155.416,490.3979)">
          <path d="m0 0c0.92-1.27 1.06-3.3 0.23-4.65-0.52-0.94-1.52-1.52-2.61-1.38-1 0.25-2 0.85-2.4 1.88-0.48 1.5-0.59 3.06 0.5 4.34C-3.09 1.4-1.06 1.48 0 0" id="path46" inkscape:connector-curvature="0" style="fill-rule:nonzero;fill:#f47028"/>
        </g>
        <g id="g48" transform="translate(1154.0898,490.8208)">
          <path d="M0 0C1.19-0.63 1.56-2.13 1.42-3.32 1.46-4.55 0.5-5.76-0.52-5.74-1.32-5.99-3.53-5.14-3.23-2.04-3.09-0.66-1.48 0.67 0 0" id="path50" inkscape:connector-curvature="0" style="fill-rule:nonzero;fill:#f47028"/>
        </g>
        <g id="g52" transform="translate(1154.4551,486.9019)">
          <path d="m0 0c-1.04-0.97-2.15 0.06-2.11 1.19 0.12 0.48 0.28 1.08 0.96 1.29C0.48 2.57 0.49 0.46 0 0" id="path54" inkscape:connector-curvature="0" style="fill-rule:nonzero;fill:#231f20"/>
        </g>
        <g id="g56" transform="translate(1139.2012,449.1548)">
          <path d="m0 0c0.84-3.12 3.54-10.14 4.24-10.31 1.26-0.15 3.29 0.06 6.03-0.86 0.95-0.32 1.41-1.41 2.13-2.13-2.8-2.23-6.64-2.19-9.86-1.31-1.67 0.55-3.25 0.57-4.91 0.91-5.8-0.06-11.24-3.44-17.1-2.17-1.35 0.23-2.67 0.32-4 0.44-3.52 0.21-7.06-0.63-10.56-0.55-3.24 0.99-6.7-0.34-9.82 1.26-0.72 0.42-1.48 1.05-2.17 1.12 1.12 0.65 7.15 1.22 8.79 1.05 1.71-0.32 3.46-0.51 5.17-0.95 3.14-0.13 6.39-0.89 9.57-0.57 1.75 0.19 3.59 0.51 5.21 1.62 2.21 1.03 3.86 2.97 6.54 2.78 1.48-0.15 2.86-0.54 4.45-0.46 0.82 0.25 2 0.1 2.89 0.72-0.46-0.67 0.59-0.93 0.09-1.62 0.44 0.49 0.38 1.22 0.68 1.88 0.34 2.32 0.53 4.66 0.34 6.98 0.02 3.96-0.91 7.86-1.35 11.78-0.39 2.01-0.81 4.4-1.52 6.49-0.87 2.57-1.51 5.16-2.78 7.88-0.36 0.99-0.95 1.92-1.37 2.82 1.64 0.09 3.12 0.55 4.45 1.37C-4.19 18.99-1.6 9.42 0 0" id="path58" inkscape:connector-curvature="0" style="fill-rule:nonzero;fill:#90d3ee"/>
        </g>
        <g id="g60" transform="translate(1151.4893,477.23)">
          <path d="m0 0c-1.47-10.07-2.38-20.3-2.89-30.44-0.19-2.65 0-5.16 0.51-7.5-1.2 0.32-2.55 0.42-3.79 0.51 0.38 0.84 0.51 1.75 0.87 2.59 0.4 2.07 1.52 13.34 1.62 16.84 0.28 6.05 1.08 12.08 0.19 18.11C-2.44-0.23-1.16-0.11 0 0" id="path62" inkscape:connector-curvature="0" style="fill-rule:nonzero;fill:#90d3ee"/>
        </g>
        <g id="g64" transform="translate(1101.1582,472.4868)">
          <path d="m0 0c5.32-1.85 8.24-13.21 8.64-16.14 0.59-1.81 0.82-4.3 1.08-6.43 0-1.9 0.36-3.35 0.11-5.25-0.32-2.87-0.63-5.75-2.09-8.16-1.5-0.21-2.84 0.8-4.34 0.67 0.55 0.72 0.66 1.96 1.37 2.78 1.45 2.85 1.26 5.97 1.01 9C4.66-18 3.65-12.39 1.16-7.44c-1.52 3.01-6.8 5.36-8.39 0.87-1.27-3.59 0.19-8.44 0.91-9.32 0.85-1.04 2.38-1.94 3.44-0.65 0.3 0.36 0.06 0.93 0.21 1.37 0.72-1.56 1.6-3.37 0.91-5.12-0.42-0.78-1.31-0.97-2.06-1.01-1.69 0.23-2.38 1.73-3.29 2.99-2.72 4.32-3.1 9.63-1.37 14.31 0.74 2.02 2.26 4.62 4.74 4.7C-2.56 0.74-1.32 0.46 0 0" id="path66" inkscape:connector-curvature="0" style="fill-rule:nonzero;fill:#fff"/>
        </g>
        <g id="g68" transform="translate(1102.1699,490.8032)">
          <path d="M0 0C0.08-0.93-0.02-1.85-0.72-2.53-2.06-3.77-3.9-4.03-5.46-3.5-7.42-3.16-7.48-0.7-6.32 0.4-4.6 1.92-0.5 2.55 0 0" id="path70" inkscape:connector-curvature="0" style="fill-rule:nonzero;fill:#848acd"/>
        </g>
        <g id="g72" transform="translate(1101.5156,490.6348)">
          <path d="m0 0c0.13-0.91-0.27-1.73-1.01-2.28-1.52-0.69-4.5-0.94-4.76 0.57-0.02 0.91 0.5 2 1.52 2.47C-2.97 1.45-0.78 1.71 0 0" id="path74" inkscape:connector-curvature="0" style="fill-rule:nonzero;fill:#848acd"/>
        </g>
        <g id="g76" transform="translate(1113.0459,480.2651)">
          <path d="m0 0c0.55-1.1 0.78-3.01-0.72-3.54-0.76-0.25-1.77-0.51-2.53 0.11-1.73 1.2-3.22 3.65-1.92 5.67 0.46 0.65 1.35 0.93 2.09 1.01C-1.56 2.91-0.44 1.45 0 0" id="path78" inkscape:connector-curvature="0" style="fill-rule:nonzero;fill:#848acd"/>
        </g>
        <g id="g80" transform="translate(1112.6445,479.6108)">
          <path d="m0 0c0.15-0.61 0.17-1.24-0.1-1.81-0.63-0.59-1.2-0.84-2.02-0.5-1.75 0.89-3.02 3.01-2.06 4.81 0.32 0.44 0.91 0.55 1.41 0.7C-1.31 2.87-0.4 1.31 0 0" id="path82" inkscape:connector-curvature="0" style="fill-rule:nonzero;fill:#848acd"/>
        </g>
        <g id="g84" transform="translate(1091.1465,480.3281)">
          <path d="m0 0c0.48-0.88 0.21-2.02-0.25-2.89-0.6-1.68-4.06-3.08-3.94 0.1 0.06 1.5 1.03 3.4 2.72 3.4C-0.7 0.66-0.31 0.38 0 0" id="path86" inkscape:connector-curvature="0" style="fill-rule:nonzero;fill:#848acd"/>
        </g>
        <g id="g88" transform="translate(1090.5781,479.8643)">
          <path d="m0 0c0.4-1.16-0.34-2.19-1.2-3.08-0.91-0.95-1.69 0-1.77 0.8 0.25 1.18 0.74 2.47 2.07 2.74C-0.53 0.53-0.1 0.38 0 0" id="path90" inkscape:connector-curvature="0" style="fill-rule:nonzero;fill:#848acd"/>
        </g>
        <g id="g92" transform="translate(1088.6602,469.811)">
          <path d="m0 0c0.36-1.07 0.4-1.94 0.15-2.99-0.55-0.67-1.01-1.75-2.06-1.73-1.03 0.19-1.88 1.24-2.02 2.24-0.55 1.56 0.25 3.77 2.23 3.84C-0.99 1.18-0.19 0.8 0 0" id="path94" inkscape:connector-curvature="0" style="fill-rule:nonzero;fill:#848acd"/>
        </g>
        <g id="g96" transform="translate(1087.9014,469.811)">
          <path d="M0 0C0.53-1.03 0.63-2.47-0.25-3.39-0.55-3.96-1.14-3.96-1.66-3.86-2.76-2.85-2.78-1.69-2.43-0.36-2 0.53-0.59 1.12 0 0" id="path98" inkscape:connector-curvature="0" style="fill-rule:nonzero;fill:#848acd"/>
        </g>
        <g id="g100" transform="translate(1118.7578,468.187)">
          <path d="m0 0c1.12-1.64 2.02-3.62 0.76-5.42-2.36-1.69-4.17 2.3-4.4 4.34C-3.39 0.68-1.18 1.18 0 0" id="path102" inkscape:connector-curvature="0" style="fill-rule:nonzero;fill:#848acd"/>
        </g>
        <g id="g104" transform="translate(1119.1162,466.269)">
          <path d="M0 0C0.56-1.15 0.42-3.39-1.12-3.14-2.3-2.42-3.08-1.27-3.29 0-3.47 1.13-1.8 3.66 0 0" id="path106" inkscape:connector-curvature="0" style="fill-rule:nonzero;fill:#848acd"/>
        </g>
        <g id="g108" transform="translate(1153.5537,434.1479)">
          <path d="M0 0C1.08-0.52 2.17-0.29 3.29-0.51 2.64-1.64 1.39-2.06 0.42-2.74-0.19-3.12-0.56-3.92-2.4-3.01c-2.65 1.3-5.99-1.37-8.96-1.51-1.45 0.17-2.95 0.5-4.32 0.52-2.51 0.08-4.81-1.43-7.34-1.12-1.35-0.02-2.35 0.5-3.58 1.01-2.51 1.05-5.54-0.32-8.3-0.36-1.92 0.11-3.92 1.33-5.65 0.51-2.28-0.51-4.57-1.28-6.89-1.16-1.33 0.19-2.58 1.05-3.69 1.52-2.15 0.92-5.71-0.32-7.38 0.36-0.61 0.46-1.43 1.88-2.63 1.67-1.09 0-2.34-0.57-3.43 0.1-2.42 2.19 1.37 1.79 2.47 2.17 0.36 0.15 1.39 0 2.02-0.44 0.63-0.59 1.39-0.88 2.09-1.33 2.47-0.42 4.95-0.28 7.42-0.04 0.93-0.28 1.88-0.22 2.78-0.57 2.85-0.4 5.84 0.57 8.77 0.46 1.71 0.04 3.48-0.4 5.14-0.72 1.08 0.02 2.03-0.21 3.14-0.04 3.02 0.59 6.07 0.61 9 1.88 1.54 0.49 3.62 0.55 5.27 0.66 2.61-0.02 4.79-1.12 7.38-1.48 1.18-0.19 2.26 0.17 3.46 0.32 1.33 0.3 2.42 1.18 3.58 1.77C-1.73 1.55-0.3 0.66 0 0" id="path110" inkscape:connector-curvature="0" style="fill-rule:nonzero;fill:#d8eea9"/>
        </g>
        <g id="g112" transform="translate(1134.5439,485.8921)">
          <path d="M0 0C-1.14-1.07-2.36 0.06-2.32 1.31-2.19 1.83-2.01 2.49-1.26 2.72 0.53 2.82 0.54 0.5 0 0" id="path114" inkscape:connector-curvature="0" style="fill-rule:nonzero;fill:#231f20"/>
        </g>
        <g id="g116" transform="translate(1104.8008,437.126)">
          <path d="m0 0c0.61-0.1 1.4-0.08 2.11-0.43 0.75-0.38 2.64-0.48 2.64-0.48 3.2 6.66 2.53 14.25 0.76 21.14-0.84 3.52-1.79 6.98-3.37 10.27-1.71 2.82-4.05 5.67-7.4 6.18-1.92 0.4-4.49 0.23-5.86-1.81-1.77-2.36-2.38-4.97-2.74-7.8-0.08-1.92 0.11-3.21 0.65-5.96 0.38-1.62 1.01-3.16 1.98-4.59 0.76-1.37 2.11-3.25 3.79-3.35 2.19-0.06 3.39 2.34 2.89 4.2-0.59 1.64-1.09 3.69-2.23 4.76-0.57-0.99 0.44-2.74-1.05-3.18-1.52 0.06-2.05 1.79-2.49 2.93-0.3 2.51-1.14 5.69 0.97 7.88 0.76 1.08 2.36 0.91 3.39 0.61 3.94-1.98 4.51-6.66 5.71-10.41C0.68 16.08 1.65 12.22 1.77 8.24 1.56 6.38 1.06 4.48 0.26 2.73-0.25 2-0.35 0.96-1.01 0.31-1.01 0.31-0.59 0.09 0 0" id="path118" inkscape:connector-curvature="0" style="fill-rule:nonzero;fill:#bd1b36"/>
        </g>
        <g id="g120" transform="translate(1152.0684,435.4541)">
          <path d="m0 0c-1.16-0.59-2.83-1.62-4.16-1.92-1.2-0.15-2.28-0.5-3.46-0.32-2.59 0.36-4.77 1.46-7.38 1.48-1.64-0.11-3.73-0.17-5.26-0.65-2.93-1.26-5.98-1.29-9-1.87-1.12-0.17-2.07 0.06-3.14 0.04-1.66 0.32-3.43 0.76-5.14 0.72-2.93 0.11-5.92-0.86-8.77-0.46-0.9 0.35-1.85 0.29-2.78 0.57-2.47-0.23-4.95-0.38-7.42 0.04-0.69 0.44-1.45 0.74-2.09 1.33-0.63 0.44-1.67 0.59-2.02 0.44 0 0 1.06 0.5 1.73 0.72 0.7-0.06 1.45-0.7 2.17-1.12 3.12-1.6 6.58-0.28 9.82-1.26 3.5-0.08 7.04 0.76 10.56 0.55 1.33-0.13 2.66-0.21 4-0.44 5.86-1.26 11.3 2.11 17.1 2.17 1.66-0.34 3.24-0.36 4.91-0.91 3.22-0.88 7.06-0.92 9.86 1.31L0 0" id="path122" inkscape:connector-curvature="0" style="fill-rule:nonzero;fill:#90d3ee"/>
        </g>
      </g>
    </g>
  </g>
</svg>
