<?xml version="1.0" encoding="UTF-8" standalone="no"?><!DOCTYPE svg PUBLIC "-//W3C//DTD SVG 1.1//EN" "http://www.w3.org/Graphics/SVG/1.1/DTD/svg11.dtd"><svg id="karen" width="100%" height="100%" viewBox="0 0 230 230" version="1.1" xmlns="http://www.w3.org/2000/svg" xmlns:xlink="http://www.w3.org/1999/xlink" xml:space="preserve" xmlns:serif="http://www.serif.com/" style="fill-rule:evenodd;clip-rule:evenodd;stroke-linejoin:round;stroke-miterlimit:2;"><g id="g3708"><g id="g3714"><path d="M6.267,19.49c0.121,-2.679 -0.576,-5.226 -0.236,-6.456c4.666,-0.834 10.436,-1.466 16.672,-1.943c6.241,-0.483 14.327,-0.193 20.871,-0.445c6.549,-0.258 11.555,-1.054 17.138,-1.208c5.583,-0.153 11.083,-1.246 14.432,-1.427c3.349,-0.181 9.371,0.747 17.808,0.78c8.437,0.032 18.571,0.131 28.704,0.203c7.307,0.055 13.208,0.378 19.494,0.208c2.432,-0.066 5.533,-0.702 7.888,-0.719c8.437,-0.055 16.502,0.357 19.85,0c2.811,1.614 6.34,3.563 10.101,5.627c3.766,2.064 8.388,4.029 12.143,6.093c3.749,2.064 6.631,4.222 9.403,5.836c2.778,1.613 4.825,2.892 5.66,3.612c-0.061,3.469 -0.017,8.124 0.077,13.345c0.06,3.59 0.142,7.454 0.23,11.374c1.136,0.895 2.448,2.514 3.524,3.14c1.29,0.752 2.229,0.044 3.618,0.988c1.389,0.939 2.849,1.993 4.403,3.195c1.559,1.202 3.216,2.547 5.011,4.068c-0.806,2.151 -1.323,5.357 -1.619,9.14c-0.296,3.782 -0.373,8.146 -0.307,12.603c0.066,4.463 1.284,9.58 1.57,13.768c0.285,4.189 -0.357,7.444 0,10.403c-0.538,0.988 -1.345,1.97 -2.366,2.937c-1.021,0.966 -6.988,3.573 -8.635,4.358c-1.301,0.621 -2.421,1.806 -3.717,2.586c0.22,4.71 0.379,9.293 0.363,13.334c-0.017,5.012 -0.291,9.195 -1.005,11.764c-2.75,1.734 -4.628,4.589 -8.081,6.516c-3.447,1.927 -8.47,2.931 -12.043,4.715c-3.574,1.784 -7.065,3.409 -10.183,4.71c-3.124,1.301 -5.869,2.273 -7.966,2.75c-5.517,-0.45 -8.816,0.116 -14.53,-0.219c-2.586,-0.148 -7.57,-1.252 -10.151,-1.378c-10.869,-0.554 -18.894,0.115 -24.049,-0.055c-0.209,-0.005 -0.406,-0.022 -0.615,-0.027c0.088,7.262 1.724,15.486 2.048,27.53c0.357,13.235 -0.868,31.081 -0.236,45.184c0.626,14.102 2.569,25.24 3.107,35.648c0.379,7.318 0.06,14.268 -0.126,18.5c6.032,1.252 10.391,5.594 9.216,10.441c-0.384,1.575 -1.361,3.2 -2.788,4.715c2.909,4.024 5.72,8.97 8.53,13.225c3.409,5.154 6.818,9.266 11.122,16.616c0,6.099 -0.499,10.178 -0.84,19.73c-0.137,3.826 0.966,10.04 0.719,14.591c-0.148,2.69 -0.4,5.264 -0.664,7.674c5.248,0.307 13.79,0.45 20.037,1.175c7.756,0.895 11.714,2.212 16.737,3.107c5.023,0.9 9.568,3.332 12.434,6.697c2.871,3.36 4.183,6.818 1.674,11.479c-6.818,3.046 -16.04,6.516 -26.305,11c-10.266,4.485 -20.745,10.463 -29.534,13.872c-5.72,0 -15.634,0.204 -28.101,-0.719c-7.076,-0.521 -15.442,-1.981 -23.149,-2.602c-8.141,-0.653 -16.331,-1.317 -23.912,-1.91c-12.247,-0.955 -22.908,-1.724 -29.221,-1.949c-4.485,-3.584 -6.011,-8.607 -5.335,-13.092c0.675,-4.485 4.38,-7.471 8.684,-8.91c4.304,-1.432 11.089,-4.995 20.19,-8.042c8.712,-2.915 18.774,-6.247 28.584,-9.354c0.269,-3.76 0.533,-8.207 0.489,-12.977c-0.083,-8.339 -1.137,-17.577 -0.956,-26.547c1.433,-2.69 3.124,-10.222 4.782,-16.502c1.405,-5.325 2.805,-9.744 5.056,-13.702c-1.878,-1.476 -3.118,-3.271 -3.618,-5.187c-1.186,-4.545 1.795,-9.706 6.966,-12.346c-0.236,-6.763 -0.867,-17.05 -1.229,-27.59c-0.429,-12.406 -0.478,-25.153 -1.016,-39.278c-0.538,-14.124 -2.382,-28.128 -2.811,-39.639c-0.351,-9.481 0.264,-17.27 0.44,-22.282c-0.385,-0.017 -0.78,-0.038 -1.153,-0.049c-6.044,-0.149 -11.062,-0.269 -14.591,-0.39c-2.306,-0.077 -5.852,0.686 -9.805,0.719c-2.102,0.016 -4.155,-0.725 -6.57,-0.697c-4.068,0.044 -9.931,0.669 -14.471,0.697c-3.228,0.016 -8.712,-1.175 -11.956,-1.197c-8.075,-0.044 -12.011,0.373 -17.813,-0.093c-6.061,-0.489 -10.606,-1.279 -12.341,-2.536c-0.719,-3.168 0.033,-7.192 -0.461,-11.715c-0.488,-4.523 -2.223,-9.552 -2.519,-14.8c-0.297,-5.247 -1.175,-11.44 -1.307,-16.77c-0.132,-5.33 0.478,-9.804 0.478,-14.586c0,-4.781 -0.297,-12.06 -0.709,-20.437c-0.406,-8.377 -1.251,-18.928 -1.685,-28.106c-0.433,-9.179 -0.455,-16.979 -0.532,-24.159c-0.044,-3.975 0.894,-5.962 1.015,-8.602l-0.011,-0.011Zm141.338,115.032c1.065,-0.889 2.009,-2.833 2.827,-5.583c0.824,-2.75 1.516,-6.302 2.081,-10.397c0.565,-4.101 0.999,-8.745 1.301,-13.68c0.302,-4.935 0.467,-10.161 0.494,-15.425c0.027,-5.265 -1.186,-11.067 -1.444,-16.139c-0.258,-5.078 0.439,-9.426 -0.11,-13.801c-0.554,-4.375 -1.251,-8.278 -2.113,-11.44c-0.856,-3.168 -2.344,-4.88 -3.519,-6.324c-1.136,-1.4 -3.123,-3.354 -6.587,-4.419c-3.464,-1.065 -7.927,-1.965 -13.065,-2.701c-5.133,-0.735 -11.04,-2.284 -17.177,-2.684c-6.137,-0.401 -12.516,0.346 -19.004,0.274c-6.489,-0.071 -13.329,1.137 -19.499,1.4c-4.781,0.203 -9.947,-0.609 -16.864,0.181c-5.193,0.593 -9.738,1.356 -13.29,2.284c-3.557,0.928 -6.132,2.02 -7.389,3.277c-0.955,0.955 -1.685,3.014 -2.212,5.907c-0.527,2.887 -0.264,5.121 -0.417,9.398c-0.154,4.276 -0.73,10.595 -0.566,15.716c0.165,5.122 0.472,10.524 0.895,15.942c0.428,5.418 0.972,10.847 1.603,16.024c0.637,5.171 2.542,10.358 3.332,14.739c0.785,4.38 0.45,7.96 1.334,11.006c0.884,3.047 1.806,5.287 2.728,6.45c0.928,1.164 3.157,3.366 6.22,4.304c3.058,0.939 6.944,0.626 11.555,1.312c4.612,0.686 9.86,1.235 15.448,1.636c7.515,0.538 13.026,1.537 17.478,1.598c5.984,0.082 12.055,-0.868 17.863,-1.137c5.808,-0.263 11.374,-0.713 16.425,-1.356c5.045,-0.647 10.073,-0.521 13.784,-1.575c3.711,-1.054 6.099,-3.288 7.894,-4.782l-0.006,-0.005Z" style="fill:#424a52;"/></g><g id="g3726"><path id="path3732" d="M177.496,17.821c-1.603,-0.868 -3.349,-2.02 -4.924,-3.08c0.043,3.854 0.022,9.695 0.142,12.17c0.17,3.492 1.175,8.213 1.323,12.127c0.148,3.919 -0.488,7.471 -0.368,11.544c0.121,4.073 1,8.662 1.076,12.62c0.077,3.958 0.132,7.785 0.149,11.353c0.022,3.568 0.016,6.873 -0.028,9.776c-0.044,2.904 -0.121,5.413 -0.241,7.384c-0.121,1.971 -0.214,4.353 -0.286,7.021c-0.066,2.371 -0.115,4.984 -0.159,7.746c1.158,-0.171 2.607,-0.176 4.271,-0.423c2.624,-0.384 5.78,-1.361 8.997,-1.647c0.335,-0.027 0.67,-0.06 1.005,-0.093c0.291,-1.79 0.466,-4.392 0.56,-7.504c0.109,-3.755 0.109,-8.235 0.082,-12.851c-0.027,-4.617 -0.088,-9.382 -0.099,-13.702c-0.011,-4.326 0.752,-7.016 0.933,-9.881c0.176,-2.871 -0.362,-7.219 -0.203,-10.474c0.154,-3.255 -0.368,-5.627 -0.274,-8.899c0.088,-3.271 0.79,-7.449 0.768,-10.375c-0.022,-2.503 -0.093,-4.787 -0.225,-6.785c-1.103,-0.609 -2.212,-1.213 -3.326,-1.822c-3.821,-2.075 -6.077,-2.536 -9.179,-4.216" style="fill:#a09d9e;fill-rule:nonzero;"/><path id="path3734" d="M196.967,27.757c-1.389,-0.796 -2.855,-1.62 -4.353,-2.454c0.137,2.02 0.203,4.265 0.203,6.675c0,2.723 -0.077,5.649 -0.192,8.652c-0.121,3.002 -0.286,6.087 -0.461,9.145c-0.182,3.052 -0.374,6.071 -0.555,8.942c-0.181,2.872 -0.225,6.758 -0.214,11.078c0.006,4.326 -0.768,10.611 -0.741,15.228c0.027,4.617 0.867,7.57 0.752,11.325c-0.099,3.255 -0.28,5.967 -0.598,7.762c2.113,-0.208 4.21,-0.445 6.186,-0.752c2.366,-0.373 4.54,-0.856 6.352,-1.504c-0.006,-0.346 -0.011,-0.692 -0.017,-1.049c-0.121,-4.775 -0.598,-10.166 -0.477,-13.152c0.12,-2.987 0.845,-6.741 0.955,-11.72c0.11,-4.974 -1.032,-11.298 -0.955,-16.979c0.076,-5.682 1.416,-9.969 1.432,-15.069c0.017,-4.183 -0.433,-8.805 -0.625,-12.121c-1.856,-1.191 -4.139,-2.553 -6.687,-4.013" style="fill:#a09d9e;fill-rule:nonzero;"/><path id="path3736" d="M214.089,113.239c1.251,-0.719 4.128,-1.367 5.385,-2.536c-0.269,-1.345 -0.571,-4.946 -0.588,-8.701c-0.022,-3.755 -1.086,-7.284 -0.971,-11.961c0.121,-4.677 1.52,-8.8 1.674,-12.912c0.159,-4.111 -0.928,-8.218 -0.834,-10.282c-0.538,-0.181 -1.224,-1.74 -2.273,-2.387c-1.048,-0.654 -2.459,-0.39 -3.782,-1.285c-1.323,-0.895 -2.723,-1.861 -4.084,-2.783c-0.687,-0.461 -1.362,-0.917 -2.01,-1.34c0.006,0.225 0.011,0.456 0.017,0.681c0.121,5.726 0.225,11.391 0.252,16.37c0.028,4.984 -0.016,9.277 -0.197,12.269c-0.181,2.986 -0.972,6.971 -0.719,12.197c0.23,4.749 1.312,10.513 1.745,15.953c0.039,-0.011 0.072,-0.017 0.11,-0.028c0.846,-0.23 5.029,-2.525 6.275,-3.244" style="fill:#a09d9e;fill-rule:nonzero;"/><path id="path3738" d="M179.988,156.925c3.716,-1.57 7.866,-2.059 11.138,-3.75c3.272,-1.691 5.671,-4.583 7.927,-6.066c2.256,-1.482 3.854,-2.783 4.512,-3.738c0.236,-3.228 1.735,-6.582 1.675,-11.479c-0.061,-4.896 -1.675,-11.33 -1.85,-16.742c-0.138,-4.172 -0.028,-7.603 -0.028,-11.144c-1.982,0.565 -4.617,0.455 -7.208,0.862c-3.013,0.477 -5.961,1.658 -9.178,1.943c-3.217,0.285 -6.329,0.543 -8.959,0.928c-1.477,0.214 -2.789,0.477 -3.886,0.796c-0.149,2.657 -0.676,4.748 -0.703,7.811c-0.028,3.437 0.593,8.103 0.571,11.6c-0.022,3.496 -0.044,6.971 -0.077,10.32c-0.033,3.348 -0.077,6.565 -0.132,9.546c-0.055,2.981 -0.132,5.731 -0.23,8.135c-0.055,1.301 -0.11,2.498 -0.181,3.58c2.19,-0.802 4.413,-1.675 6.609,-2.602" style="fill:#a09d9e;fill-rule:nonzero;"/><path id="path3742" d="M105.034,185.937c0.105,4.15 0.999,14.503 0.955,18.653c-0.093,8.585 1.131,19.63 1.329,28.655c0.291,13.383 0.571,26.174 0.845,36.538c0.275,10.364 0.544,18.302 0.813,21.975c0.807,1.432 1.751,2.442 2.744,3.09c1,0.642 2.054,0.922 3.08,0.9c1.032,-0.021 2.042,-0.345 2.948,-0.916c0.906,-0.566 1.713,-1.373 2.344,-2.361c-0.181,-4.841 0.763,-13.367 0.242,-24.752c-0.522,-11.385 -2.504,-25.625 -3.064,-39.414c-0.23,-5.704 0.873,-11.413 0.676,-17.023c-0.286,-7.96 -0.302,-15.887 -0.478,-22.957c-0.247,-10.085 -1.438,-18.709 -1.663,-24.879c-4.419,-0.318 -8.613,-0.796 -12.467,-1.076c0.489,4.408 1.455,14.125 1.691,23.561" style="fill:#a09d9e;fill-rule:nonzero;"/><path id="path3746" d="M184.852,28.816c0,1.186 0.559,2.152 1.257,2.152c0.691,0 1.257,-0.966 1.257,-2.152c0,-1.186 -0.56,-2.152 -1.257,-2.152c-0.692,0 -1.257,0.966 -1.257,2.152" style="fill:#424a52;fill-rule:nonzero;"/><path id="path3756" d="M183.655,56.083c0,1.185 0.565,2.151 1.257,2.151c0.692,0 1.257,-0.966 1.257,-2.151c0,-1.186 -0.565,-2.152 -1.257,-2.152c-0.692,0 -1.257,0.966 -1.257,2.152" style="fill:#424a52;fill-rule:nonzero;"/><path id="path3758" d="M182.458,74.972c0,1.186 0.56,2.152 1.257,2.152c0.692,0 1.257,-0.966 1.257,-2.152c0,-1.191 -0.56,-2.152 -1.257,-2.152c-0.691,0 -1.257,0.961 -1.257,2.152" style="fill:#424a52;fill-rule:nonzero;"/><path id="path3760" d="M183.177,98.171c0,1.185 0.56,2.151 1.257,2.151c0.692,0 1.257,-0.966 1.257,-2.151c0,-1.186 -0.559,-2.152 -1.257,-2.152c-0.691,0 -1.257,0.966 -1.257,2.152" style="fill:#424a52;fill-rule:nonzero;"/><path id="path3762" d="M180.965,115.539c0,1.186 0.56,2.152 1.257,2.152c0.692,0 1.257,-0.966 1.257,-2.152c0,-1.191 -0.56,-2.152 -1.257,-2.152c-0.692,0 -1.257,0.961 -1.257,2.152" style="fill:#424a52;fill-rule:nonzero;"/><path id="path3764" d="M196.39,112.849c0,1.186 0.56,2.152 1.258,2.152c0.691,0 1.257,-0.966 1.257,-2.152c0,-1.191 -0.56,-2.151 -1.257,-2.151c-0.698,0 -1.258,0.96 -1.258,2.151" style="fill:#424a52;fill-rule:nonzero;"/><path id="path3744" d="M9.374,40.536c0.077,2.965 0.906,7.203 0.988,10.255c0.198,7.4 0.967,13.367 1.164,19.877c0.198,6.511 -0.175,13.57 0,17.221c0.181,3.645 -0.532,9.798 -0.236,16.26c0.297,6.466 1.598,13.24 1.943,20.327c0.341,7.082 0.698,13.933 1.021,19.438c0.324,5.506 0.626,9.678 0.862,11.413c2.158,0.478 3.887,1.614 6.939,1.91c2.278,0.226 5.715,-0.34 8.339,-0.197c6.137,0.34 15.173,1.586 22.034,1.63c6.862,0.044 11.545,-1.114 17.479,-1.164c5.929,-0.049 11.221,0.862 14.569,0.923c3.349,0.06 9.431,-0.703 17.193,-0.428c3.579,0.126 6.269,1.712 10.31,1.866c4.72,0.181 10.852,-1.07 15.754,-0.867c5.408,0.219 9.157,1.152 13.186,1.103c4.26,-0.049 8.717,-1.092 11.479,-0.955c7.372,0.362 13.932,1.674 16.501,1.91c0.417,-0.132 0.845,-0.28 1.268,-0.423c0.115,-1.46 0.214,-3.194 0.291,-5.182c0.099,-2.404 0.17,-5.149 0.231,-8.135c0.055,-2.981 0.807,-6.351 0.84,-9.7c0.032,-3.349 -0.648,-6.664 -0.626,-10.161c0.022,-3.497 0.044,-7.016 0.071,-10.452c0.028,-3.436 0.055,-6.791 0.099,-9.947c0.044,-3.162 1.059,-14.333 1.175,-16.304c0.12,-1.971 -0.516,-4.002 -0.478,-6.906c0.044,-2.904 0.5,-7.943 0.478,-11.506c-0.022,-3.568 -0.522,-5.665 -0.599,-9.623c-0.077,-3.958 -0.175,-8.036 -0.296,-12.109c-0.121,-4.074 -0.258,-8.136 -0.412,-12.055c-0.148,-3.92 -0.313,-7.691 -0.488,-11.183c-0.171,-3.491 -0.352,-6.702 -0.533,-9.496c-0.126,-1.944 -0.252,-3.667 -0.379,-5.166c-0.23,-0.143 -0.45,-0.285 -0.642,-0.395c-2.915,-0.088 -4.463,1.235 -7.894,1.196c-3.744,-0.043 -9.409,-1.432 -13.542,-1.432c-1.839,0 -3.228,0.944 -5.111,0.955c-6.231,0.022 -13.125,-0.867 -19.373,-0.807c-8.129,0.077 -15.754,1.252 -22.479,1.284c-6.725,0.033 -12.555,-1.075 -16.26,-1.196c-3.705,-0.121 -9.475,-0.017 -16.238,0.208c-6.757,0.225 -14.602,1.823 -22.265,2.185c-7.669,0.357 -15.162,-0.521 -21.596,-0.241c-6.434,0.285 -11.709,0.477 -14.756,0.477c0.121,3.228 0.269,8.487 0.439,14.794c0.099,3.706 -0.548,6.571 -0.439,10.793l-0.011,0.005Zm140.861,-1.674c1.158,1.801 2.185,4.523 3.063,7.938c0.878,3.414 1.625,7.515 2.218,12.066c0.598,4.551 0.867,9.475 1.174,14.673c0.302,5.199 0.637,10.672 0.637,16.035c0,5.363 -0.148,10.693 -0.455,15.738c-0.308,5.051 -1.708,9.179 -2.333,13.428c-0.423,2.849 -0.05,7.279 -1.433,11.577c-0.95,2.964 -2.07,5.166 -3.354,6.357c-1.889,1.756 -4.03,3.519 -7.889,4.781c-2.036,0.664 -7.147,1.68 -14.69,2.827c-5.242,0.796 -11.088,0.165 -17.116,0.522c-6.027,0.357 -12.236,1.713 -18.456,1.663c-6.225,-0.049 -10.869,-0.999 -16.693,-1.427c-5.824,-0.428 -12.829,-0.33 -17.665,-1.104c-4.837,-0.774 -8.262,-2.344 -11.512,-3.441c-3.255,-1.098 -6.335,-1.724 -7.411,-3.108c-0.839,-1.075 -1.729,-3.293 -2.624,-6.373c-0.894,-3.079 -2.492,-5.616 -3.354,-10.128c-0.861,-4.512 -0.993,-10.99 -1.729,-16.364c-0.741,-5.374 -1.394,-11.034 -1.916,-16.699c-0.521,-5.665 0.516,-11.534 0.302,-16.919c-0.214,-5.391 -1.685,-10.293 -1.504,-14.832c0.181,-4.54 0.588,-8.515 1.263,-11.638c0.675,-3.124 2.569,-4.919 3.826,-6.055c1.779,-1.609 3.881,-3.48 7.888,-4.661c4.008,-1.18 9.975,-3.436 15.547,-4.188c5.571,-0.758 10.743,-0.017 17.215,-0.357c6.472,-0.34 12.9,1.016 19.614,1.076c6.713,0.06 13.564,-2.371 19.85,-1.91c6.285,0.461 12.335,2.316 17.533,3.167c5.199,0.845 8.915,2.542 12.362,3.766c3.448,1.224 6.621,1.987 7.653,3.584l-0.011,0.006Z" style="fill:#bbbaba;fill-rule:nonzero;"/><path id="path3768" d="M151.432,25.473c0,1.85 0.823,4.469 2.031,5.682c1.213,1.213 2.816,1.015 4.66,1.015c1.85,0 3.524,-0.746 4.738,-1.959c1.213,-1.214 2.437,-2.405 2.437,-4.255c0,-1.85 -0.939,-4.704 -2.152,-5.917c-1.213,-1.214 -3.173,-1.258 -5.023,-1.258c-1.85,0 -3.09,1.12 -4.304,2.333c-1.213,1.214 -2.393,2.515 -2.393,4.365" style="fill:#424a52;fill-rule:nonzero;"/><path id="path3770" d="M153.583,25.473c0,1.252 0.511,2.388 1.334,3.211c0.824,0.824 1.96,1.329 3.212,1.329c1.257,0 2.766,-0.017 3.584,-0.834c0.824,-0.824 0.956,-2.454 0.956,-3.706c0,-1.257 -0.511,-2.393 -1.329,-3.217c-0.823,-0.823 -1.96,-1.328 -3.211,-1.328c-1.257,0 -2.388,0.51 -3.212,1.328c-0.823,0.824 -1.334,1.96 -1.334,3.212" style="fill:#bbbaba;fill-rule:nonzero;"/><path id="path3772" d="M16.143,22.311c-1.422,1.18 -2.915,3.486 -3.074,5.188c-0.159,1.707 1.015,2.816 2.19,4.238c1.18,1.427 2.827,2.234 4.534,2.399c1.708,0.159 3.409,0.34 4.831,-0.84c1.427,-1.181 3.025,-3.728 3.184,-5.435c0.165,-1.707 -1.054,-3.244 -2.234,-4.666c-1.18,-1.427 -2.838,-1.669 -4.545,-1.828c-1.708,-0.159 -3.464,-0.236 -4.886,0.939" style="fill:#424a52;fill-rule:nonzero;"/><path id="path3774" d="M17.515,23.969c-0.966,0.801 -1.515,1.916 -1.625,3.074c-0.109,1.153 0.225,2.355 1.027,3.321c0.801,0.966 1.778,2.119 2.931,2.229c1.159,0.11 2.498,-0.829 3.464,-1.63c0.966,-0.802 1.515,-1.916 1.625,-3.075c0.104,-1.158 -0.225,-2.36 -1.026,-3.326c-0.802,-0.966 -1.916,-1.515 -3.075,-1.625c-1.158,-0.11 -2.36,0.225 -3.326,1.026" style="fill:#bbbaba;fill-rule:nonzero;"/><path id="path3776" d="M28.785,152.099c1.751,-0.582 3.98,-2.19 4.749,-3.722c0.768,-1.537 0.076,-2.991 -0.511,-4.742c-0.582,-1.757 -1.822,-3.108 -3.359,-3.876c-1.532,-0.763 -3.053,-1.554 -4.809,-0.966c-1.751,0.582 -4.167,2.377 -4.935,3.914c-0.769,1.531 -0.187,3.409 0.395,5.16c0.582,1.751 2.036,2.58 3.574,3.349c1.531,0.768 3.14,1.471 4.896,0.889" style="fill:#424a52;fill-rule:nonzero;"/><path id="path3778" d="M28.104,150.063c1.192,-0.396 2.108,-1.241 2.63,-2.278c0.521,-1.038 0.642,-2.279 0.247,-3.47c-0.395,-1.191 -0.889,-2.618 -1.927,-3.14c-1.037,-0.521 -2.629,-0.132 -3.821,0.264c-1.191,0.395 -2.107,1.24 -2.629,2.278c-0.521,1.043 -0.642,2.278 -0.247,3.469c0.395,1.191 1.241,2.108 2.278,2.63c1.038,0.521 2.278,0.642 3.469,0.247" style="fill:#bbbaba;fill-rule:nonzero;"/><path id="path3780" d="M152.787,155.003c1.252,1.362 3.629,2.729 5.342,2.8c1.712,0.071 2.761,-1.158 4.117,-2.41c1.361,-1.252 2.086,-2.937 2.157,-4.65c0.072,-1.712 0.165,-3.425 -1.087,-4.781c-1.251,-1.361 -3.881,-2.822 -5.594,-2.893c-1.712,-0.071 -3.183,1.224 -4.545,2.476c-1.361,1.251 -1.515,2.915 -1.586,4.633c-0.072,1.713 -0.055,3.469 1.196,4.831" style="fill:#424a52;fill-rule:nonzero;"/><path id="path3782" d="M154.368,153.543c0.851,0.922 1.993,1.411 3.157,1.46c1.158,0.05 2.344,-0.346 3.261,-1.196c0.927,-0.851 2.025,-1.883 2.075,-3.047c0.049,-1.164 -0.956,-2.454 -1.806,-3.376c-0.851,-0.922 -1.993,-1.411 -3.157,-1.46c-1.164,-0.044 -2.344,0.351 -3.266,1.202c-0.922,0.845 -1.416,1.993 -1.46,3.156c-0.05,1.159 0.346,2.344 1.196,3.267" style="fill:#bbbaba;fill-rule:nonzero;"/></g></g></svg>