<svg xmlns:svg="http://www.w3.org/2000/svg" xmlns="http://www.w3.org/2000/svg" version="1.1" id="svg2" xml:space="preserve" width="600" height="600" viewBox="0 0 600 600">
  <metadata id="metadata8"/>
  <defs id="defs6"/>
  <g id="g10" transform="matrix(1.3333333,0,0,-1.3333333,0,600)">
    <g id="MAIN_CHARACTER_5" transform="matrix(1.9490625,0,0,1.9490625,-1064.4262,-579.01903)">
      <title id="title142">
        Plankton
      </title>
      <g transform="translate(621.8465,396.73172)" id="g12">
        <path id="path14" d="M0 0C0.37-0.93 0.22-1.52 0.2-1.84 0.13-2.52-0.06-3.21-0.35-3.84c-0.58-1.25-1.57-2.28-2.77-2.93-0.41-3.26 0.03-6.39 0.24-9.82l20.2 0.41c-0.1 3.4 0.07 6.49 0.48 9.89C11.44-5.05 5.7-3.09 0 0Zm84.6 104.91c4.88 0.93 10.14 1.34 14.81 1.1-4.05-1.06-9.11-1.63-13.23-2.93l1.03-1.43-1.63-0.57-1.12 1.53c0 0-2.34-0.83-4.6-1.72-4.22-1.68-8.52-3.57-11.71-7.42l1.22-0.48-0.87-1.55-1.25 0.45C65.54 88.49 63.85 85.13 62.39 81.31l2.16-0.45-0.83-2.25-2.09 0.4C59.43 74.68 58.16 70.22 56.79 65.51l3.54-0.08-0.43-2.06c0 0-2.67-0.1-3.77-0.17-0.96-3.23-1.81-6.57-2.4-9.96 4.91-0.79 9.45-2.58 13.12-6.11 1.2-1.17 2.78-2.51 3.64-4.02 2.1 3.68 3.99 7.95 6.4 11.56-0.98 0.96-2.62 2.11-2.62 2.11l1.12 1.77 2.66-1.6c1.74 3.59 9.48 14.67 9.48 14.67-0.65 0.49-3.35 2.69-3.35 2.69l1.72 1.8 3.04-2.25c2.24 3.25 6.81 8.13 10.31 11.95-0.78 0.81-1.68 2.33-1.68 2.33l1.84 1.8 2.14-2.48c6.9 3.88 15.5 5.66 24.23 4.38l-0.7 3.41 2.38-0.37c0.58-1.1 0.86-2.34 1.31-3.47 6.8-0.69 12.99-2.92 18.96-5.53l-0.24-0.24c-6.02 1.43-11.87 2.25-18.16 2.32l0.24-2.73c0 0-1.9-0.14-2.58 0.06l-0.4 2.91c-7.21-0.24-15.58-0.68-21.31-4.87 0.22-0.38 2.25-2.67 2.25-2.67l-1.91-1.62-2.54 2.47c-3.02-3.64-6.51-7.44-9.05-11.36 0.72-0.84 2.17-1.96 2.17-1.96l-1.58-2.12-2.11 1.66c-3.64-4.02-6.92-9.13-9.88-13.8 0.94-0.56 2.73-2.35 2.73-2.35l-1.17-1.58c0 0-1.68 1.24-2.71 1.65-2.89-4.12-7.46-13.95-7.48-14.24-0.02-0.38 0.1-0.77 0.3-1.08 1.51-4.19 0.86-8.93 0.07-13.12C73.01 16.17 69.38 9.57 66.55 3.05 65.39 0.38 64.28-2.32 63.23-5.04c-2.05-5.3-3.93-10.69-5.52-16.15-2.64-9.1-1.34-18.96-4.12-27.86-0.82-2.51-2.51-4.67-4.29-6.77 0.6-1.11 1.1-2.27 1.52-3.46 0.74-2.11 1.22-4.29 1.61-6.48 0.2-1.13 0.38-2.26 0.55-3.4 0.14-0.92 0.36-2.18 0.05-3.09-0.43-1.26-1.68-2.21-3.06-1.99-0.44 0.07-0.68 0.36-0.99 0.65-0.79 0.75-1.17 1.68-1.68 2.62-1.12 2.07-2.02 4.24-3.14 6.31-0.57 1.04-1.19 2.06-1.9 3.01-0.36 0.47-0.73 0.93-1.14 1.36-0.17 0.19-1.05 1.27-1.3 1.23l-3.3-0.48c-1-1.2-1.82-2.64-3.23-3.12-2.13 0.1-3.92 0.1-6.25 0-0.35-0.02-0.8-4.85-0.85-5.35-0.08-0.91-0.14-1.82-0.18-2.73-0.04-0.97 0.23-1.95-0.28-2.85-1.19-2.11-3.11-1.5-4.23 0.27-0.56 0.88-0.88 1.88-1.15 2.88-0.23 0.83-0.45 1.67-0.65 2.51-0.4 1.71-0.72 3.43-0.9 5.18-10.17-0.17-19.65 0.62-29.85 1.17l-21.61 26.69c-0.69 1.03-1.48 2.03-1.31 3.4 2.06 4.6 3.13 9.58 5.43 14.08 3.89 0.43 10.11 0.54 10.11 0.54-5.31 7.98-17.85 24.27-18.25 25.02-0.4 0.76 0.41 1.72 0.41 1.72-4.84 8-15.17 23.03-15.33 23.44-0.24 0.61-0.16 1.06-0.16 1.06-3.47 5.57-11.3 16.49-11.47 16.49-1.91-0.4-4.54-0.51-4.98 2.04-0.12 0.71-0.04 1.49 0.1 2.19 0.29 1.35 1.18 2.59 2.31 3.36 1.07 0.74 3.05 1.34 4.29 0.66 1.38-0.76 2.1-2.2 1.99-3.78-0.05-0.61-0.36-1.34-0.65-1.84 0 0 7.56-11.24 11.44-16.47 1.24 0.03 2.12-0.77 2.46-2.01l0.53-0.94 13.78-22.12c1.24 0.21 2.23-0.82 2.78-1.79l5.36-7.18 10.13-13.43c1.51-2.13 2.85-4.33 4.54-6.35h1.93c0 0-0.28 6.73-0.93 9.55-0.05 0.19-1.89 0.96-2.15 1.14-0.7 0.5-1.31 1.11-1.74 1.85-0.77 1.33-1.34 3.49-0.54 4.94 0.08 0.15-0.94 1.55-1.22 2.58-0.27 0.98-0.57 1.97-0.67 2.99-0.2 2-0.43 4.95 1.7 6 2.59 1.29 5.85-0.82 8.1-1.95 7.73-3.91 15.05-8.42 23.33-10.79-0.61 0.18 3.27 16 3.66 17.45 1.55 5.8 3.52 11.49 6.03 16.93 3.17 6.87 7.6 14.47 15.39 16.97l3.85 1.24c1 3.57 1.63 7.54 2.77 11.08l-3.46-0.04 0.56 2.15 3.54 0.1c1 4.56 2.57 9.82 4.79 14.82-1.2 0.31-3.66 0.68-3.66 0.68l0.69 1.82 3.85-0.51c0 0 4.47 9.95 5.87 11.71l-1.24 0.48 0.74 1.35 1.38-0.51c5.27 5.07 14.04 8.14 19.4 9.34l-1.08 1.36 1.48 0.58c0 0 0.92-0.89 1.44-1.58" style="fill-rule:nonzero;fill:#231f20"/>
      </g>
      <g transform="translate(705.44824,500.0744)" id="g16">
        <path id="path18" d="m0 0c-5.84-2.3-12.35-3.89-16.58-9.29l-1.87 0.62c5.15 4.95 11.56 7.67 18.15 9.01L0 0" style="fill-rule:nonzero;fill:#00613b"/>
      </g>
      <g transform="translate(687.68933,489.31042)" id="g20">
        <path id="path22" d="m0 0c-1.89-3.44-3.82-7.39-5.2-11.03l-2.45 0.45c1.55 3.78 3.61 7.68 5.84 11.22L0 0" style="fill-rule:nonzero;fill:#00613b"/>
      </g>
      <g transform="translate(747.81512,487.07843)" id="g24">
        <path id="path26" d="M0 0C0.07-0.24 0.17-0.48 0.17-0.75-6.83-0.93-16.43-1.5-22.02-5.6l-1.24 1.48C-18.17-0.56-6.83 1.34 0 0" style="fill-rule:nonzero;fill:#00613b"/>
      </g>
      <g transform="translate(758.88507,485.35846)" id="g28">
        <path id="path30" d="M0 0-7.94 0.9-8.01 1.31C-6.43 1.14-1.48 0.48 0 0" style="fill-rule:nonzero;fill:#00613b"/>
      </g>
      <g transform="translate(723.56219,479.31445)" id="g32">
        <path id="path34" d="m0 0c-3.33-3.47-6.49-7.32-9.24-11.2l-1.96 1.65c2.85 3.88 6.25 7.59 9.72 11.37C-1.17 1.37-0.27 0.38 0 0" style="fill-rule:nonzero;fill:#00613b"/>
      </g>
      <g transform="translate(681.68829,476.12048)" id="g36">
        <path id="path38" d="m0 0c-1.68-4.6-3.63-9.22-5.01-13.92l-2.24 0.05c1.17 4.88 3.2 9.7 4.64 14.44L0 0" style="fill-rule:nonzero;fill:#00613b"/>
      </g>
      <g transform="translate(703.12427,451.86752)" id="g40">
        <path id="path42" d="M0 0-1.82 1.07C1 5.98 4.36 10.68 7.42 15.49L9.55 13.84 0 0" style="fill-rule:nonzero;fill:#00613b"/>
      </g>
      <g transform="translate(676.05536,459.90454)" id="g44">
        <path id="path46" d="M0 0C-0.66-3.01-1.7-6.65-2.21-10.05L-4.91-10.34-2.37-0.06 0 0" style="fill-rule:nonzero;fill:#00613b"/>
      </g>
      <g transform="translate(559.49677,454.27155)" id="g48">
        <path id="path50" d="m0 0c-0.03-1.41-0.65-2.85-2.06-3.4-0.96-0.29-1.79-0.82-2.61-0.31-1 0.53-0.29 1.75 0.07 2.45 0.52 1.01 1.41 1.6 2.44 1.99C-1.51 0.97 0.02 1.03 0 0" style="fill-rule:nonzero;fill:#c3cade"/>
      </g>
      <g transform="translate(561.42175,452.86356)" id="g52">
        <path id="path54" d="m0 0c0.03-1.85-1.13-3.61-2.89-4.36-1.36-0.59-3.22-0.69-4.04 0.78-0.05 0.09-0.25 0.7-0.25 0.69 0.96-0.93 2.41-0.39 3.54 0.17 1.74 0.87 2.44 2.82 2.47 4.6C-0.41 1.65-0.14 0.72 0 0" style="fill-rule:nonzero;fill:#c3cade"/>
      </g>
      <g transform="translate(701.67725,449.08759)" id="g56">
        <path id="path58" d="m0 0c-3.61-6.01-7.14-12.16-8.79-19 0.1-0.28 0.14-0.83 0.58-0.72l0.41 0.07 1.17 2.89c0.89-13.98-6.01-25.15-10.31-37.17l-5.87-15.9c-3.37-9.12-2.95-18.8-5.08-28.13-0.72-3.16-1.72-6.22-3.4-8.97-0.58 0.07-0.51 1.17-1.24 0.89-0.03-3.33 1.99-6.01 2.65-9.14 0.55-2.04 0.89-4.09 1.21-6.17 0.13-0.85 0.41-1.92 0.09-2.75-0.25-0.64-0.94-0.88-1.5-0.35-0.58 0.54-0.85 1.28-1.16 1.99-0.54 1.26-1.2 2.54-1.77 3.74-0.45 0.95-0.91 1.88-1.41 2.8-1.01 1.86-2.15 3.66-3.53 5.27 0.45 0.72 1.44 1 2.13 1.48 0.14 0.28-0.21 0.38-0.31 0.58-1.75-0.55-3.5-1.37-5.36-1.41v0.34c1.89 2.37 3.71 4.95 5.19 7.42-0.41 1.96-1.75 3.57-2.64 5.36-1.1 2.06-2.58 3.92-3.78 6.01 4.99 4.8 9.95 9.69 14.26 15.03 0.29 0.36 0.92 1.08 0.89 1.29-0.35 0.02-0.84-0.56-1.41-1-5.84-4.56-17.58-18.84-26.45-24.21-2.16-0.7-4.45-0.64-6.61 0.02-1.18 0.36-3.73 1.91-1.8 2.9 1.23 0.63 3.17 0.36 4.5 0.48 1.5 0.13 3.37 0.33 4.74 1.03 8.73 8.07 17.56 16.42 24.8 25.9 0 0-0.14 0.21-0.52 0.26-0.38 0.05-1.03-0.67-1.03-0.67-4.74-5.63-9.86-10.2-15.01-15.49-4.02 5.29-7.18 11.1-10.96 16.56-1.07 1.41-2.54 0.07-3.81 0.48 0.35 12.88 3.44 24.94 6.6 36.93 1.05 3.42 2.28 6.78 3.63 10.09 2.21 5.43 3.97 9.86 8.44 13.88 3.21 2.88 7.15 5.25 11.39 6.15 5.09 1.07 8.67-0.58 13.23-2.57 2.95-1.65 5.6-4.43 7.83-7.18l-0.96-2.78c0.14-0.07 0.24-0.24 0.41-0.28l0.72 0.82c2.51 4.91 5.29 9.79 8 14.53C-1.27 0.96-0.44 0.3 0 0" style="fill-rule:nonzero;fill:#6fa48c"/>
      </g>
      <g transform="translate(572.62067,433.48862)" id="g60">
        <path id="path62" d="m0 0c0.52-0.82-0.03-1.68-0.34-1.99-0.32-0.31-0.76-0.41-1.06-0.41l-10.72 15.77 1.58 1.13C-7.35 9.69-3.54 4.6 0 0" style="fill-rule:nonzero;fill:#c3cade"/>
      </g>
      <g transform="translate(664.78638,436.61459)" id="g64">
        <path id="path66" d="m0 0c4.81-4.91 12.23-3.98 18.89-3.95 0.14-0.69-0.21-1.06-0.75-1.34 0.65-0.1 0.82-0.65 1.17-1.24l-0.17-1.65c-0.86-0.03-1.65-0.17-2.4-0.48 0.38-0.04 0.65-0.24 1.07-0.17L17.66-9 19.14-9.41c-0.03-0.31-0.1-0.52-0.1-0.89-1.99-0.76-4.15-1.17-6.32-1.58 0.9-3.92 0.82-8.07-0.27-12.09-0.81-2.97-1.99-5.51-4.6-8.83 0.79-0.62 1.51-1.68 1.72-2.71C9.41-36.17 9-36.55 8.42-36.86 7.41-37.21 6.15-37.13 5.29-36.34c-3.41-3.3-7.84-5.62-12.62-4.23-1.44 0.42-2.86 1.07-4.15 1.85-2.42 1.46-4.06 4.22-4.82 6.93-1.13 0-1.95 0.33-2.5 0.95-0.38 0.55-0.38 1.24-0.17 1.82 0.79 0.96 1.99 1.27 3.23 1.34-0.72 8.07 3.13 16.76 9.72 21.44 0.45 0.41 1.07 0.48 1.48 0.96l-2.71 4.05c0.28 0.79 1-0.07 1.41 0.07 0.1-0.17 0.31-0.21 0.48-0.31l0.07 0.07-1.06 1.24c0.31 0.41 0.69 1.48 1.24 1.07-0.1 0.48 0.45 0.76 0.76 1L-3.37 1.24-3.47 2.71c0.14 0.04 0.17-0.1 0.24-0.17l0.27 0.59C-1.82 2.44-1.2 0.89 0 0" style="fill-rule:nonzero;fill:#231f20"/>
      </g>
      <g transform="translate(589.27966,408.51471)" id="g68">
        <path id="path70" d="m0 0c0.28-0.51 0.24-1.3-0.17-1.75-0.55-0.55-1.17-0.96-1.99-0.89 0 0-1.83 3.73-4.19 7.18-2.35 3.45-11.13 16.28-11.61 17.14 1.03 0.17 2.55 1.55 2.61 2.47C-14.99 24.05-4.74 6.22 0 0" style="fill-rule:nonzero;fill:#c3cade"/>
      </g>
      <g transform="translate(675.84833,424.59161)" id="g72">
        <path id="path74" d="m0 0c0.62-0.79 0.62-1.85 0.82-2.82 0.31-3.13-0.1-6.8-1.24-10.07-1.1-2.54-2.55-6.04-3.99-6.9-7.45 5.63-18.79 4.67-18.79 4.67-0.89-0.21-1.58-0.09-2.23-0.31-1.16 8 4.19 17.28 10.72 21.09C-11.2 2.82-6.27 0.56 0 0" style="fill-rule:nonzero;fill:#f0f47f"/>
      </g>
      <g transform="translate(664.71741,414.28665)" id="g76">
        <path id="path78" d="m0 0c0.83-1.68 0.91-4.54-0.12-6.15-3.37 0.96-6.85 1.44-10.71 1.4-0.52 2.3 0.08 4.62 1.59 6.3C-6.55 4.54-1.72 3.36 0 0" style="fill-rule:nonzero;fill:#f14829"/>
      </g>
      <g transform="translate(662.89636,414.69867)" id="g80">
        <path id="path82" d="m0 0c0.21-0.72-0.31-1.34-0.93-1.51-0.62-0.07-1.27 0.24-1.48 0.83-0.21 0.72 0.34 1.34 0.93 1.51C-0.86 0.89-0.21 0.58 0 0" style="fill-rule:nonzero;fill:#fff"/>
      </g>
      <g transform="translate(672.68835,401.50671)" id="g84">
        <path id="path86" d="m0 0c-1.27-0.34-2.95 1.82-3.54-0.24-3.02-2.99-7.28-5.29-11.85-3.81-3.95 1.13-6.9 4.95-7.83 8.73-0.62 0.38-1.51 0.34-2.16 0.34-0.07 0.58 0.58 0.79 1 0.89C-15.6 8.04-5.81 6.05 0 0" style="fill-rule:nonzero;fill:#6fa48c"/>
      </g>
      <g transform="translate(625.6665,401.08173)" id="g88">
        <path id="path90" d="m0 0c1.69-0.78 3.4-1.5 5.15-2.34 0.73-0.35 9.28-3.97 9.31-3.66 0 0-0.31-2.88-0.31-2.88-6.15 1.2-18.44 6.45-18.71 6.74-0.45 0.47-1.06 1.35-1.92 1.9-1.87 1.2-2.87 1.12-4.58 1.09-0.34 1.07-0.96 1.99-1.75 2.89-0.41 0.34-0.89 0.62-1.48 0.48l-0.17-0.24c2.53-1.54 4.38-10.82-0.18-7.87-0.71 0.46-1.26 1.51-1.57 2.24-0.81 1.91-1.48 4.14-0.98 6.23C-15.93 9.94-5.93 3.21-3.65 1.88-2.44 1.17-1.23 0.57 0 0" style="fill-rule:nonzero;fill:#6fa48c"/>
      </g>
      <g transform="translate(612.77759,378.07877)" id="g92">
        <path id="path94" d="m0 0c-0.17-1.51-1.3-2.58-2.58-3.19-0.41-0.03-1.18-0.4-1.68-0.17-0.17 0.08-13.89 20.59-21.58 29.62-0.32 0.45-0.29 0.79-0.29 0.79 0.61-0.25 1.59-0.18 2.13 0.22 0.79 0.48 1.72 1.25 1.57 2.18 0 0 0.36 0.19 0.65-0.17C-21.49 28.91-2.23 3.61 0 0" style="fill-rule:nonzero;fill:#c3cade"/>
      </g>
      <g transform="translate(665.13037,403.05267)" id="g96">
        <path id="path98" d="m0 0c-3.98 0.38-7.87 1.58-11.88 1.82 1.57 0.63 3.32 0.67 4.98 0.52C-5.35 2.19-3.72 1.85-2.25 1.32-1.54 1.07-0.57 0.56 0 0" style="fill-rule:nonzero;fill:#231f20"/>
      </g>
      <g transform="translate(620.29156,398.33273)" id="g100">
        <path id="path102" d="m0 0c0.83-1.38 1.04-3.09 0.15-4.59-0.62-1.03-1.41-1.65-2.4-2.3-0.82 0.55-1.61 1.75-2.89 1.17-0.69-0.28-0.96-1-1.06-1.65 0.04 0.23-2.16 0.73-2.89 1.52-0.95 1.02-1.86 2.54-1.41 3.98 0.72-0.79 2.03-1.72 3.16-1.24 1.96 1.37 2 3.78 1.9 5.91 0 0 1.82 0.12 3.07-0.37C-1.14 1.93-0.53 0.87 0 0" style="fill-rule:nonzero;fill:#c3cade"/>
      </g>
      <g transform="translate(651.66443,393.74374)" id="g104">
        <path id="path106" d="m0 0c2.89-2.89 6.9-4.33 10.89-3.3 3.13 0.65 5.74 2.44 8.25 4.47 0.34 0.14 0.55-0.21 0.65-0.41 0.31-8.04-2.99-16.11-10.03-19.2-2.4-1.05-5.47-1.21-7.88-0.05-1.24 0.6-2.97 1.99-3.8 3.06-0.81 1.03-1.4 2.23-1.83 3.47-0.97 2.79-1.35 5.76-1.31 8.7 0.02 1.89 0.13 5.14 1.29 6.73 0.35 0.48 0.66 0.24 0.96-0.05C-2.65 3.25 0 0 0 0" style="fill-rule:nonzero;fill:#231f20"/>
      </g>
      <g transform="translate(651.11542,392.6777)" id="g108">
        <path id="path110" d="m0 0-0.93-4.05c-0.93 0.58-1.61 1.31-2.47 2.16-0.07 1.75 0.45 3.13 0.82 4.78C-2.58 2.2 0 0 0 0" style="fill-rule:nonzero;fill:#fff"/>
      </g>
      <g transform="translate(669.56042,388.00876)" id="g112">
        <path id="path114" d="m0 0c-0.28-0.43-1.77-1.08-2.93-1.39l0.97 4.76 2.96 2.3C0.71 4.15 0.89 1.71 0 0" style="fill-rule:nonzero;fill:#fff"/>
      </g>
      <g transform="translate(617.38055,391.09778)" id="g116">
        <path id="path118" d="m0 0c0 0 0.03-7.49 0.34-10.96l-1.89-0.17c-0.65 3.57-0.72 7.63-1 11.3 0.24 0.24 0.58 0.62 0.89 0.65C-0.96 0.86-0.41 0.59 0 0" style="fill-rule:nonzero;fill:#94a0ce"/>
      </g>
      <g transform="translate(655.47748,389.96475)" id="g120">
        <path id="path122" d="m0 0c-0.1-1.17-0.45-2.44-0.65-3.64-1.27 0.34-2.64 0.93-3.81 1.75l0.93 3.85C-2.51 1.17-1.2 0.34 0 0" style="fill-rule:nonzero;fill:#fff"/>
      </g>
      <g transform="translate(665.68042,386.42575)" id="g124">
        <path id="path126" d="m0 0c-0.99-0.4-2.75-0.69-4.19-0.93l0.59 3.64c1.44 0.62 3.06 0.72 4.43 1.48L0 0" style="fill-rule:nonzero;fill:#fff"/>
      </g>
      <g transform="translate(661.07538,389.03775)" id="g128">
        <path id="path130" d="m0 0-0.58-3.61c-1.44 0.07-3.33 0.14-4.84 0.59l0.72 3.44C-3.46 0.07-1.27-0.04 0 0" style="fill-rule:nonzero;fill:#fff"/>
      </g>
      <g transform="translate(649.53448,380.72379)" id="g132">
        <path id="path134" d="M0 0C-0.65 0.83-0.87 1.91-1 2.89L0.24 1.82 0 0" style="fill-rule:nonzero;fill:#fff"/>
      </g>
      <g transform="translate(654.48145,380.65479)" id="g136">
        <path id="path138" d="m0 0c-0.19-1.37-0.45-2.64-0.65-3.98-1.44 0.45-2.68 1.48-3.54 2.82L-3.78 1.31C-2.51 0.86-1.1 0.11 0 0" style="fill-rule:nonzero;fill:#fff"/>
      </g>
      <g transform="translate(666.60742,380.89481)" id="g140">
        <path id="path142" d="m0 0c-0.34-0.41-0.69-0.93-1.17-1.34 0.14 0.44 0.22 1.01 0.22 1.01 0.12 0.12 0.52 0.29 0.77 0.33L0 0" style="fill-rule:nonzero;fill:#fff"/>
      </g>
      <g transform="translate(659.6394,380.08078)" id="g144">
        <path id="path146" d="m0 0c-0.13-1.84-0.43-3.08-0.69-4.3-1.61-0.07-2.82 0.07-4.22 0.48l0.65 4.12C-2.86 0.06-1.37 0.1 0 0" style="fill-rule:nonzero;fill:#fff"/>
      </g>
      <g transform="translate(664.61536,380.31079)" id="g148">
        <path id="path150" d="M0 0C0.02-0.56-0.21-1.69-0.21-1.69-0.99-2.79-4.29-4.12-4.43-4.19l0.48 3.85C-2.75-0.21-1.17-0.24 0 0" style="fill-rule:nonzero;fill:#fff"/>
      </g>
      <g transform="translate(639.81244,373.13184)" id="g152">
        <path id="path154" d="m0 0-21.5 0.41c0.76 3.26-2.92 3.68-4.64 5.19L-7.01 5.94C-3.67 6.15-0.27 5.84 3.06 6.36 2.13 4.19 1.27 2.03 0 0" style="fill-rule:nonzero;fill:#c3cade"/>
      </g>
      <g transform="translate(607.72858,374.05884)" id="g156">
        <path id="path158" d="m0 0c-0.1-0.14-0.07-0.34-0.07-0.51l-15.25 0.1c0.41 1.65 1.13 3.3 1.89 4.78 3.26-0.1 6.66 0.17 10 0.24L0 0" style="fill-rule:nonzero;fill:#c3cade"/>
      </g>
      <g transform="translate(648.71045,370.89981)" id="g160">
        <path id="path162" d="m0 0c-0.86-2.03-2.03-3.92-2.71-6.01l-5.53 7.94 3.13 5.91C-3.16 5.56-1.68 2.61 0 0" style="fill-rule:nonzero;fill:#94a0ce"/>
      </g>
      <g transform="translate(617.20959,374.78079)" id="g164">
        <path id="path166" d="m0 0c0.38-1.03-0.1-2.06-0.65-3.06-1.17-1.92-3.44-2.82-5.53-2.54-0.55 0.07-1.06 0.14-1.48 0.58-0.34 1.34-0.69 3.54-0.64 4.21 1.99-0.06 4.19 1.91 4.7 3.87C-2.32 2.08-1.13 1.2 0 0" style="fill-rule:nonzero;fill:#c3cade"/>
      </g>
      <g transform="translate(607.83057,372.65179)" id="g168">
        <path id="path170" d="m0 0c0.17-1.24-0.2-2.78 1-3.54 1.14-0.89 2.3-1.13 3.78-1 2.17 0.55 4.36 1.89 5.29 4.12l0.24 0.58C16.97 0.21 24.6-0.24 31.57-0.1 29.99-2.95 28.17-6.01 26.45-8.83H9.48c-9.41 0.1-18.69 0.69-28.03 1.41l2.78 7.66C-10.72 0.41-4.84 0.31 0 0" style="fill-rule:nonzero;fill:#c3cade"/>
      </g>
      <g transform="translate(597.02362,371.17682)" id="g172">
        <path id="path174" d="M0 0C0.02-0.11 0.03-0.23 0.02-0.36-0.03-1.12-1.16-2.11-1.9-1.51-2.62-0.94-3.22 0.09-2.17 0.7-1.38 1.16-0.19 0.91 0 0" style="fill-rule:nonzero;fill:#231f20"/>
      </g>
      <g transform="translate(605.66656,371.0708)" id="g176">
        <path id="path178" d="M0 0C0.48-1.57-4.14-2.09-2.89 0.41-2.03 1.03-0.34 1.13 0 0" style="fill-rule:nonzero;fill:#231f20"/>
      </g>
      <g transform="translate(621.5885,371.56281)" id="g180">
        <path id="path182" d="M0 0C0.29-0.23 0.43-0.57 0.27-1.08 0.18-1.36-0.14-1.57-0.38-1.7-0.92-2-1.7-2.15-2.28-1.91-3.12-1.57-3.15-0.68-2.63-0.06-2.03 0.65-0.71 0.56 0 0" style="fill-rule:nonzero;fill:#231f20"/>
      </g>
      <g transform="translate(649.70648,358.29184)" id="g184">
        <path id="path186" d="m0 0c-0.1-0.38-0.52-0.69-0.82-0.89-0.38 0.55-1.27 1-1.82 0.59-0.65-0.65-0.48-1.65-0.17-2.4-1.2-1.06-2.71-1.75-4.43-1.3L-14.6 5.36c1.72 2.75 2.82 5.74 4.88 8.35L0 0" style="fill-rule:nonzero;fill:#94a0ce"/>
      </g>
      <g transform="translate(604.73657,371.21381)" id="g188">
        <path id="path190" d="M0 0C0.17-0.23 0.06-0.56-0.57-0.64-1.16-0.72-2.08-0.38-1.16 0.1-0.63 0.38-0.17 0.23 0 0" style="fill-rule:nonzero;fill:#c3cade"/>
      </g>
      <g transform="translate(620.93958,371.07581)" id="g192">
        <path id="path194" d="M0 0C0.01-0.03 0.01-0.06 0.01-0.09 0.02-0.48-0.62-0.53-0.84-0.73-1.63-0.88-1.84-0.3-1.2 0.05-0.94 0.2-0.1 0.47 0 0" style="fill-rule:nonzero;fill:#c3cade"/>
      </g>
      <g transform="translate(596.3136,371.0708)" id="g196">
        <path id="path198" d="M0 0C-0.02-0.41-0.51-0.98-0.86-1.04-1.62-1.18-1.51 0.48-0.49 0.42-0.12 0.4 0.01 0.23 0 0" style="fill-rule:nonzero;fill:#c3cade"/>
      </g>
      <g transform="translate(631.63751,370.76181)" id="g200">
        <path id="path202" d="m0 0c0.41-0.68 0.41-1.2-0.28-1.64-0.53-0.34-1.32-0.64-1.92-0.29-0.41 0.24-0.82 0.48-0.93 1C-3.38 0.32-0.51 0.85 0 0" style="fill-rule:nonzero;fill:#231f20"/>
      </g>
      <g transform="translate(630.98352,370.24683)" id="g204">
        <path id="path206" d="M0 0C0.07-0.53-0.87-0.95-1.27-0.7-1.8-0.37-1.36 0.1-0.91 0.2-0.76 0.24-0.03 0.26 0 0" style="fill-rule:nonzero;fill:#c3cade"/>
      </g>
      <g transform="translate(654.13849,362.65482)" id="g208">
        <path id="path210" d="M0 0C-0.93-1.3-2.61-2.54-3.85-3.95L-7.73 1.51C-6.77 3.4-6.08 5.46-4.84 7.18-3.16 4.95-1.62 2.4 0 0" style="fill-rule:nonzero;fill:#94a0ce"/>
      </g>
      <g transform="translate(642.74042,364.87085)" id="g212">
        <path id="path214" d="M0 0C0.29-0.48 0.42-1.04 0.16-1.44-0.73-2.79-2.5-0.4-1.86 0.67-1.43 1.39-0.49 0.8 0 0" style="fill-rule:nonzero;fill:#231f20"/>
      </g>
      <g transform="translate(642.16943,364.60684)" id="g216">
        <path id="path218" d="m0 0c0.11-0.17 0.15-0.37 0.06-0.51-0.32-0.48-0.95 0.37-0.72 0.75C-0.51 0.5-0.17 0.29 0 0" style="fill-rule:nonzero;fill:#94a0ce"/>
      </g>
      <g transform="translate(634.69452,363.23782)" id="g220">
        <path id="path222" d="m0 0 6.84-8.83c-1.7-0.22-6.37-0.29-7.04-2.38-0.44-1.36 1.71-2.83 2.75-3.39 2.65-1.44 6.39-2.13 9.24-0.96l8.07-12.23c-0.79-0.45-1.79 0.04-2.78-0.24l-6.29 0.1c-2.64 2.2-4.12 5.22-6.49 7.42-8.55-0.31-17.07 0.41-25.73 0.41 0-0.41-0.34-1.03 0.17-1.41 1.62-1.96 3.02-4.05 4.88-5.87-2.27 0.24-7.35 0.69-7.35 0.69l-5.6 6.84c0 0-16.21 20.37-16.08 20.92C-38.78 0-6.95-0.93 0 0" style="fill-rule:nonzero;fill:#94a0ce"/>
      </g>
      <g transform="translate(663.89337,347.57388)" id="g224">
        <path id="path226" d="m0 0c-1.1-1.65-2.13-3.37-3.4-4.95l-6.83 10.65 4.12 3.95C-4.02 6.6-2.03 3.23 0 0" style="fill-rule:nonzero;fill:#94a0ce"/>
      </g>
      <g transform="translate(660.01239,342.04291)" id="g228">
        <path id="path230" d="m0 0c-1.41-2.1-3.02-4.33-4.71-6.08-2.92 3.74-5.39 7.94-8.25 11.85 2.06 1.48 4.09 3.26 6.12 5.05L0 0" style="fill-rule:nonzero;fill:#94a0ce"/>
      </g>
      <g transform="translate(655.63245,346.09088)" id="g232">
        <path id="path234" d="m0 0c0.17-0.43 0.17-0.9-0.11-1.35-0.31-0.51-0.79-0.48-1.23-0.18-0.2 0.13-0.38 0.29-0.52 0.48-0.27 0.36-0.38 0.76-0.43 1.2-0.02 0.19-0.02 0.37 0 0.56 0.07 0.62 0.37 1.03 1.02 0.67C-0.75 1.09-0.23 0.58 0 0" style="fill-rule:nonzero;fill:#231f20"/>
      </g>
      <g transform="translate(654.90948,346.14188)" id="g236">
        <path id="path238" d="m0 0c0.09-0.2 0.21-0.62 0.01-0.8-0.18-0.16-0.39 0.07-0.52 0.19-0.12 0.11-0.23 0.25-0.31 0.4-0.1 0.18-0.33 0.68-0.15 0.85C-0.7 0.9-0.22 0.48 0 0" style="fill-rule:nonzero;fill:#94a0ce"/>
      </g>
      <g transform="translate(638.64545,342.04291)" id="g240">
        <path id="path242" d="m0 0c1.96-2.23 3.78-4.47 5.87-6.73-8.59-0.2-16.35-0.07-24.9 0.48-2.27 1.68-3.78 4.29-5.7 6.42l0.17 0.17C-16.11-0.14-8.04 0.24 0 0" style="fill-rule:nonzero;fill:#c3cade"/>
      </g>
      <g transform="translate(619.54449,340.80692)" id="g244">
        <path id="path246" d="M0 0C0.17-0.59-1.62-0.81-1.82-0.14-2.04 0.61-0.2 0.72 0 0" style="fill-rule:nonzero;fill:#231f20"/>
      </g>
      <g transform="translate(637.12048,340.96793)" id="g248">
        <path id="path250" d="m0 0c0.09-0.33-0.41-0.73-0.78-0.71-0.34 0.02-1.06 0-1.15 0.43-0.11 0.54 0.58 0.65 0.96 0.65 0.23 0 0.5-0.02 0.71-0.12C-0.11 0.19-0.03 0.1 0 0" style="fill-rule:nonzero;fill:#231f20"/>
      </g>
      <g transform="translate(628.24249,340.2529)" id="g252">
        <path id="path254" d="m0 0c0.01-0.07-0.01-0.15-0.08-0.22-0.18-0.2-0.48-0.14-0.71-0.19-0.33-0.07-0.63-0.01-0.66 0.41-0.05 0.65 0.79 0.57 1.16 0.34C-0.15 0.27-0.02 0.14 0 0" style="fill-rule:nonzero;fill:#231f20"/>
      </g>
      <g transform="translate(646.71747,333.97095)" id="g256">
        <path id="path258" d="m0 0c-0.38-2.01-0.22-4.1-0.1-6.13 0.04-0.62 0.55-5.11-1.16-4.2-0.72 0.38-1.17 1.62-1.46 2.32-0.74 1.79-1.25 3.85-1.46 5.78 0 0-0.24 2.16-0.24 2.16C-3.09 0.07-1.37-0.04 0 0" style="fill-rule:nonzero;fill:#6fa48c"/>
      </g>
      <g transform="translate(707.05127,500.98538)" id="g260">
        <path id="path262" d="m0 0 0.32-0.43c0 0 2.68 0.66 3.29 0.77C4.22 0.45 6.53 0.96 6.53 0.96 5.81 0.96 0 0 0 0" style="fill-rule:nonzero;fill:#00613b"/>
      </g>
      <g transform="translate(647.50745,356.27585)" id="g264">
        <path id="path266" d="M0 0C0 0-0.37 0.77 0 0.92 0.37 1.06 0.8 0.72 0.8 0.72L0 0" style="fill-rule:nonzero;fill:#94a0ce"/>
      </g>
      <g transform="translate(691.86029,435.90158)" id="g268">
        <path id="path270" d="m0 0c1.8 3.82 7.97 14.49 7.97 14.49l1.85-1.3c0 0-3.69-5.78-6.35-11.8-0.68-2.06-1.74-4.29-2.44-7.19 0 0-2.38 2.75-1.79 4.95C-0.57-0.73-0.31-0.43 0 0" style="fill-rule:nonzero;fill:#00613b"/>
      </g>
      <g transform="translate(657.81238,384.76074)" id="g272">
        <path id="path274" d="m0 0c6.41-0.68 11.85 2.15 11.85 2.15 0 0-0.61-3.18-2.51-5.28 0 0-12.69-3.05-18.87 3.14-0.19 0.29-0.55 1.19-0.6 4.89C-6.78 1.07-3.35 0.36 0 0" style="fill-rule:nonzero;fill:#861810"/>
      </g>
      <g transform="translate(651.40448,386.93076)" id="g276">
        <path id="path278" d="m0 0c2.25-1.36 4.19-1.93 6.41-2.17 6.41-0.68 11.85 2.15 11.85 2.15 0 0-0.61-3.18-2.51-5.28 0 0-12.69-3.05-18.87 3.14-0.19 0.29-0.55 1.19-0.6 4.89C-2.6 1.44-1.14 0.69 0 0" style="fill-rule:nonzero;fill:#861810"/>
      </g>
    </g>
  </g>
</svg>
