<svg xmlns:svg="http://www.w3.org/2000/svg" xmlns="http://www.w3.org/2000/svg" version="1.1" id="svg3700" xml:space="preserve" width="230" height="230" viewBox="0 0 230 230"><metadata id="metadata3706"/><defs id="defs3704"><clipPath clipPathUnits="userSpaceOnUse" id="clipPath3718"><path d="M107.5 0H504.1V791.46H107.5Z" id="path3716"/></clipPath><clipPath clipPathUnits="userSpaceOnUse" id="clipPath3730"><path d="M107.35 0H504.65V792H107.35Z" id="path3728"/></clipPath><clipPath id="clipPath18" clipPathUnits="userSpaceOnUse"><path id="path16" d="M0 792H612V0H0Z"/></clipPath><clipPath id="clipPath26" clipPathUnits="userSpaceOnUse"><path id="path24" d="M0 792.03H612V0.03H0Z"/></clipPath><clipPath id="clipPath34" clipPathUnits="userSpaceOnUse"><path id="path32" d="M0 792H612V0H0Z"/></clipPath><clipPath id="clipPath42" clipPathUnits="userSpaceOnUse"><path id="path40" d="M0 792.03H612V0.03H0Z"/></clipPath><clipPath id="clipPath50" clipPathUnits="userSpaceOnUse"><path id="path48" d="M0 792H612V0H0Z"/></clipPath><clipPath id="clipPath58" clipPathUnits="userSpaceOnUse"><path id="path56" d="M0 792.03H612V0.03H0Z"/></clipPath><clipPath id="clipPath66" clipPathUnits="userSpaceOnUse"><path id="path64" d="M0 792H612V0H0Z"/></clipPath><clipPath id="clipPath74" clipPathUnits="userSpaceOnUse"><path id="path72" d="M0 792.03H612V0.03H0Z"/></clipPath><clipPath id="clipPath82" clipPathUnits="userSpaceOnUse"><path id="path80" d="m160.07 467.52h65.8v144.37h-65.8z"/></clipPath><clipPath id="clipPath158" clipPathUnits="userSpaceOnUse"><path id="path156" d="M0 792H612V0H0Z"/></clipPath><clipPath id="clipPath166" clipPathUnits="userSpaceOnUse"><path id="path164" d="M0 792.03H612V0.03H0Z"/></clipPath></defs><g id="g3708" transform="matrix(1.3333333,0,0,-1.3333333,-57.888281,248.52777)"><g id="g3710"/><g id="MAIN_CHARACTER_6A" transform="matrix(0.198,0,0,0.198,58.046751,21.791656)"><title id="title951">Karen</title><g id="g3714" clip-path="url(#clipPath3718)"><path d="m244.79 561c-1.94 1.62-3.66 5.16-5.15 10.17-1.5 5.01-2.76 11.48-3.79 18.94-1.03 7.47-1.82 15.93-2.37 24.92-0.55 8.99-0.85 18.51-0.9 28.1-0.05 9.59 2.16 20.16 2.63 29.4 0.47 9.25-0.8 17.17 0.2 25.14 1.01 7.97 2.28 15.08 3.85 20.84 1.56 5.77 4.27 8.89 6.41 11.52 2.07 2.55 5.69 6.11 12 8.05 6.31 1.94 14.44 3.58 23.8 4.92 9.35 1.34 20.11 4.16 31.29 4.89 11.18 0.73 22.8-0.63 34.62-0.5 11.82 0.13 24.28-2.07 35.52-2.55 8.71-0.37 18.12 1.11 30.72-0.33 9.46-1.08 17.74-2.47 24.21-4.16 6.48-1.69 11.17-3.68 13.46-5.97 1.74-1.74 3.07-5.49 4.03-10.76 0.96-5.26 0.48-9.33 0.76-17.12 0.28-7.79 1.33-19.3 1.03-28.63-0.3-9.33-0.86-19.17-1.63-29.04-0.78-9.87-1.77-19.76-2.92-29.19-1.16-9.42-4.63-18.87-6.07-26.85-1.43-7.98-0.82-14.5-2.43-20.05-1.61-5.55-3.29-9.63-4.97-11.75-1.69-2.12-5.75-6.13-11.33-7.84-5.57-1.71-12.65-1.14-21.05-2.39-8.4-1.25-17.96-2.25-28.14-2.98-13.69-0.98-23.73-2.8-31.84-2.91-10.9-0.15-21.96 1.58-32.54 2.07-10.58 0.48-20.72 1.3-29.92 2.47-9.19 1.18-18.35 0.95-25.11 2.87-6.76 1.92-11.11 5.99-14.38 8.71" id="path3720" style="fill-rule:nonzero;fill:#fff"/><path d="m502.26 770.55c-0.22 4.88 1.05 9.52 0.43 11.76-8.5 1.52-19.01 2.67-30.37 3.54-11.37 0.88-26.1 0.35-38.02 0.81-11.93 0.47-21.05 1.92-31.22 2.2-10.17 0.28-20.19 2.27-26.29 2.6-6.1 0.33-17.07-1.36-32.44-1.42-15.37-0.06-33.83-0.24-52.29-0.37-13.31-0.1-24.06-0.69-35.51-0.38-4.43 0.12-10.08 1.28-14.37 1.31-15.37 0.1-30.06-0.65-36.16 0-5.12-2.94-11.55-6.49-18.4-10.25-6.86-3.76-15.28-7.34-22.12-11.1-6.83-3.76-12.08-7.69-17.13-10.63-5.06-2.94-8.79-5.27-10.31-6.58 0.11-6.32 0.03-14.8-0.14-24.31-0.11-6.54-0.26-13.58-0.42-20.72-2.07-1.63-4.46-4.58-6.42-5.72-2.35-1.37-4.06-0.08-6.59-1.8-2.53-1.71-5.19-3.63-8.02-5.82-2.84-2.19-5.86-4.64-9.13-7.41 1.47-3.92 2.41-9.76 2.95-16.65 0.54-6.89 0.68-14.84 0.56-22.96-0.12-8.13-2.34-17.45-2.86-25.08-0.52-7.63 0.65-13.56 0-18.95 0.98-1.8 2.45-3.59 4.31-5.35 1.86-1.76 12.73-6.51 15.73-7.94 2.37-1.13 4.41-3.29 6.77-4.71-0.4-8.58-0.69-16.93-0.66-24.29 0.03-9.13 0.53-16.75 1.83-21.43 5.01-3.16 8.43-8.36 14.72-11.87 6.28-3.51 15.43-5.34 21.94-8.59 6.51-3.25 12.87-6.21 18.55-8.58 5.69-2.37 10.69-4.14 14.51-5.01 10.05 0.82 16.06-0.21 26.47 0.4 4.71 0.27 13.79 2.28 18.49 2.51 19.8 1.01 34.42-0.21 43.81 0.1 0.38 0.01 0.74 0.04 1.12 0.05-0.16-13.23-3.14-28.21-3.73-50.15-0.65-24.11 1.58-56.62 0.43-82.31-1.14-25.69-4.68-45.98-5.66-64.94-0.69-13.33-0.11-25.99 0.23-33.7-10.99-2.28-18.93-10.19-16.79-19.02 0.7-2.87 2.48-5.83 5.08-8.59-5.3-7.33-10.42-16.34-15.54-24.09-6.21-9.39-12.42-16.88-20.26-30.27 0-11.11 0.91-18.54 1.53-35.94 0.25-6.97-1.76-18.29-1.31-26.58 0.27-4.9 0.73-9.59 1.21-13.98-9.56-0.56-25.12-0.82-36.5-2.14-14.13-1.63-21.34-4.03-30.49-5.66-9.15-1.64-17.43-6.07-22.65-12.2-5.23-6.12-7.62-12.42-3.05-20.91 12.42-5.55 29.22-11.87 47.92-20.04 18.7-8.17 37.79-19.06 53.8-25.27 10.42 0 28.48-0.37 51.19 1.31 12.89 0.95 28.13 3.61 42.17 4.74 14.83 1.19 29.75 2.4 43.56 3.48 22.31 1.74 41.73 3.14 53.23 3.55 8.17 6.53 10.95 15.68 9.72 23.85-1.23 8.17-7.98 13.61-15.82 16.23-7.84 2.61-20.2 9.1-36.78 14.65-15.87 5.31-34.2 11.38-52.07 17.04-0.49 6.85-0.97 14.95-0.89 23.64 0.15 15.19 2.07 32.02 1.74 48.36-2.61 4.9-5.69 18.62-8.71 30.06-2.56 9.7-5.11 17.75-9.21 24.96 3.42 2.69 5.68 5.96 6.59 9.45 2.16 8.28-3.27 17.68-12.69 22.49 0.43 12.32 1.58 31.06 2.24 50.26 0.78 22.6 0.87 45.82 1.85 71.55 0.98 25.73 4.34 51.24 5.12 72.21 0.64 17.27-0.48 31.46-0.8 40.59 0.7 0.03 1.42 0.07 2.1 0.09 11.01 0.27 20.15 0.49 26.58 0.71 4.2 0.14 10.66-1.25 17.86-1.31 3.83-0.03 7.57 1.32 11.97 1.27 7.41-0.08 18.09-1.22 26.36-1.27 5.88-0.03 15.87 2.14 21.78 2.18 14.71 0.08 21.88-0.68 32.45 0.17 11.04 0.89 19.32 2.33 22.48 4.62 1.31 5.77-0.06 13.1 0.84 21.34 0.89 8.24 4.05 17.4 4.59 26.96 0.54 9.56 2.14 20.84 2.38 30.55 0.24 9.71-0.87 17.86-0.87 26.57 0 8.71 0.54 21.97 1.29 37.23 0.74 15.26 2.28 34.48 3.07 51.2 0.79 16.72 0.83 30.93 0.97 44.01 0.08 7.24-1.63 10.86-1.85 15.67" id="path3722" style="fill-rule:nonzero;fill:#424a52"/></g></g><g id="MAIN_CHARACTER_6" transform="matrix(0.198,0,0,0.198,58.046751,21.791656)"><title id="title949">Karen</title><g id="g3726" clip-path="url(#clipPath3730)"><path d="m190.34 773.59c2.92 1.58 6.1 3.68 8.97 5.61-0.08-7.02-0.04-17.66-0.26-22.17-0.31-6.36-2.14-14.96-2.41-22.09-0.27-7.14 0.89-13.61 0.67-21.03-0.22-7.42-1.82-15.78-1.96-22.99-0.14-7.21-0.24-14.18-0.27-20.68-0.04-6.5-0.03-12.52 0.05-17.81 0.08-5.29 0.22-9.86 0.44-13.45 0.22-3.59 0.39-7.93 0.52-12.79 0.12-4.32 0.21-9.08 0.29-14.11-2.11 0.31-4.75 0.32-7.78 0.77-4.78 0.7-10.53 2.48-16.39 3-0.61 0.05-1.22 0.11-1.83 0.17-0.53 3.26-0.85 8-1.02 13.67-0.2 6.84-0.2 15-0.15 23.41 0.05 8.41 0.16 17.09 0.18 24.96 0.02 7.88-1.37 12.78-1.7 18-0.32 5.23 0.66 13.15 0.37 19.08-0.28 5.93 0.67 10.25 0.5 16.21-0.16 5.96-1.44 13.57-1.4 18.9 0.04 4.56 0.17 8.72 0.41 12.36 2.01 1.11 4.03 2.21 6.06 3.32 6.96 3.78 11.07 4.62 16.72 7.68M154.87 755.49 154.87 755.49 154.87 755.49 154.87 755.49" id="path3732" style="fill-rule:nonzero;fill:#a09d9e"/><path d="m154.87 755.49c2.53 1.45 5.2 2.95 7.93 4.47-0.25-3.68-0.37-7.77-0.37-12.16 0-4.96 0.14-10.29 0.35-15.76 0.22-5.47 0.52-11.09 0.84-16.66 0.33-5.56 0.68-11.06 1.01-16.29 0.33-5.23 0.41-12.31 0.39-20.18-0.01-7.88 1.4-19.33 1.35-27.74-0.05-8.41-1.58-13.79-1.37-20.63 0.18-5.93 0.51-10.87 1.09-14.14-3.85 0.38-7.67 0.81-11.27 1.37-4.31 0.68-8.27 1.56-11.57 2.74 0.01 0.63 0.02 1.26 0.03 1.91 0.22 8.7 1.09 18.52 0.87 23.96-0.22 5.44-1.54 12.28-1.74 21.35-0.2 9.06 1.88 20.58 1.74 30.93-0.14 10.35-2.58 18.16-2.61 27.45-0.03 7.62 0.79 16.04 1.14 22.08 3.38 2.17 7.54 4.65 12.18 7.31" id="path3734" style="fill-rule:nonzero;fill:#a09d9e"/><path d="m123.68 599.77c-2.28 1.31-7.52 2.49-9.81 4.62 0.49 2.45 1.04 9.01 1.07 15.85 0.04 6.84 1.98 13.27 1.77 21.79-0.22 8.52-2.77 16.03-3.05 23.52-0.29 7.49 1.69 14.97 1.52 18.73 0.98 0.33 2.23 3.17 4.14 4.35 1.91 1.19 4.48 0.71 6.89 2.34 2.41 1.63 4.96 3.39 7.44 5.07 1.25 0.84 2.48 1.67 3.66 2.44-0.01-0.41-0.02-0.83-0.03-1.24-0.22-10.43-0.41-20.75-0.46-29.82-0.05-9.08 0.03-16.9 0.36-22.35 0.33-5.44 1.77-12.7 1.31-22.22-0.42-8.65-2.39-19.15-3.18-29.06-0.07 0.02-0.13 0.03-0.2 0.05-1.54 0.42-9.16 4.6-11.43 5.91" id="path3736" style="fill-rule:nonzero;fill:#a09d9e"/><path d="m185.8 520.19c-6.77 2.86-14.33 3.75-20.29 6.83-5.96 3.08-10.33 8.35-14.44 11.05-4.11 2.7-7.02 5.07-8.22 6.81-0.43 5.88-3.16 11.99-3.05 20.91 0.11 8.92 3.05 20.64 3.37 30.5 0.25 7.6 0.05 13.85 0.05 20.3 3.61-1.03 8.41-0.83 13.13-1.57 5.49-0.87 10.86-3.02 16.72-3.54 5.86-0.52 11.53-0.99 16.32-1.69 2.69-0.39 5.08-0.87 7.08-1.45 0.27-4.84 1.23-8.65 1.28-14.23 0.05-6.26-1.08-14.76-1.04-21.13 0.04-6.37 0.08-12.7 0.14-18.8 0.06-6.1 0.14-11.96 0.24-17.39 0.1-5.43 0.24-10.44 0.42-14.82 0.1-2.37 0.2-4.55 0.33-6.52-3.99 1.46-8.04 3.05-12.04 4.74" id="path3738" style="fill-rule:nonzero;fill:#a09d9e"/><path d="m329.31 259.54c-2.29-5.39-16.34-16.45-28.75-16.12-12.42 0.33-21.32 8.09-23.52 14.38-2 5.69 3.81 12.12 10.02 13.79 0.01-0.64 0.02-1.2 0-1.58 2.94-3.76 6.25-6.25 9.64-7.72 3.39-1.47 6.86-1.92 10.13-1.59 3.27 0.33 6.33 1.43 8.9 3.06 2.34 1.49 4.25 3.43 5.56 5.62 5.18-2.89 10.02-5.1 8.02-9.82" id="path3740" style="fill-rule:nonzero;fill:#bbbaba"/><path d="m322.34 467.34c-0.19-7.56-1.82-26.42-1.74-33.98 0.17-15.64-2.06-35.76-2.42-52.2-0.53-24.38-1.04-47.68-1.54-66.56-0.5-18.88-0.99-33.34-1.48-40.03-1.47-2.61-3.19-4.45-5-5.63-1.82-1.17-3.74-1.68-5.61-1.64-1.88 0.04-3.72 0.63-5.37 1.67-1.65 1.03-3.12 2.5-4.27 4.3 0.33 8.82-1.39 24.35-0.44 45.09 0.95 20.74 4.56 46.68 5.58 71.8 0.42 10.39-1.59 20.79-1.23 31.01 0.52 14.5 0.55 28.94 0.87 41.82 0.45 18.37 2.62 34.08 3.03 45.32 8.05 0.58 15.69 1.45 22.71 1.96-0.89-8.03-2.65-25.73-3.08-42.92" id="path3742" style="fill-rule:nonzero;fill:#a09d9e"/><path d="m496.6 732.21c-0.14-5.4-1.65-13.12-1.8-18.68-0.36-13.48-1.76-24.35-2.12-36.21-0.36-11.86 0.32-24.72 0-31.37-0.33-6.64 0.97-17.85 0.43-29.62-0.54-11.78-2.91-24.12-3.54-37.03-0.62-12.9-1.27-25.38-1.86-35.41-0.59-10.03-1.14-17.63-1.57-20.79-3.93-0.87-7.08-2.94-12.64-3.48-4.15-0.41-10.41 0.62-15.19 0.36-11.18-0.62-27.64-2.89-40.14-2.97-12.5-0.08-21.03 2.03-31.84 2.12-10.8 0.09-20.44-1.57-26.54-1.68-6.1-0.11-17.18 1.28-31.32 0.78-6.52-0.23-11.42-3.12-18.78-3.4-8.6-0.33-19.77 1.95-28.7 1.58-9.85-0.4-16.68-2.1-24.02-2.01-7.76 0.09-15.88 1.99-20.91 1.74-13.43-0.66-25.38-3.05-30.06-3.48-0.76 0.24-1.54 0.51-2.31 0.77-0.21 2.66-0.39 5.82-0.53 9.44-0.18 4.38-0.31 9.38-0.42 14.82-0.1 5.43-1.47 11.57-1.53 17.67-0.06 6.1 1.18 12.14 1.14 18.51-0.04 6.37-0.08 12.78-0.13 19.04-0.05 6.26-0.1 12.37-0.18 18.12-0.08 5.76-1.93 26.11-2.14 29.7-0.22 3.59 0.94 7.29 0.87 12.58-0.08 5.29-0.91 14.47-0.87 20.96 0.04 6.5 0.95 10.32 1.09 17.53 0.14 7.21 0.32 14.64 0.54 22.06 0.22 7.42 0.47 14.82 0.75 21.96 0.27 7.14 0.57 14.01 0.89 20.37 0.31 6.36 0.64 12.21 0.97 17.3 0.23 3.54 0.46 6.68 0.69 9.41 0.42 0.26 0.82 0.52 1.17 0.72 5.31 0.16 8.13-2.25 14.38-2.18 6.82 0.08 17.14 2.61 24.67 2.61 3.35 0 5.88-1.72 9.31-1.74 11.35-0.04 23.91 1.58 35.29 1.47 14.81-0.14 28.7-2.28 40.95-2.34 12.25-0.06 22.87 1.96 29.62 2.18 6.75 0.22 17.26 0.03 29.58-0.38 12.31-0.41 26.6-3.32 40.56-3.98 13.97-0.65 27.62 0.95 39.34 0.44 11.72-0.52 21.33-0.87 26.88-0.87-0.22-5.88-0.49-15.46-0.8-26.95-0.18-6.75 1-11.97 0.8-19.66" id="path3744" style="fill-rule:nonzero;fill:#bbbaba"/><path d="m176.94 753.56c0-2.16-1.02-3.92-2.29-3.92-1.26 0-2.29 1.76-2.29 3.92 0 2.16 1.02 3.92 2.29 3.92 1.26 0 2.29-1.76 2.29-3.92" id="path3746" style="fill-rule:nonzero;fill:#424a52"/><path d="m258.95 191.58c3.92-2.45 9.23-4.49 15.31-6.02 6.07-1.53 12.92-2.55 19.9-2.96 6.23-0.37 10.86-1.62 16.51-1.24-1.01 6.11-3.06 16.1-4.01 25.47-1.1 10.8-0.77 20.76-2.59 30.49-0.23 0.01-0.45 0-0.68 0.01-8.64 0.32-16.39 3.08-22.26 6.94-4.82-5.45-11.32-13.8-17.16-23.06-5.53-8.76-11.94-18.93-15.3-25.52 2.89-1.55 6.69-3.46 11.15-5.4-0.33 0.42-0.63 0.85-0.86 1.31M329.52 218.04 329.52 218.04 329.52 218.04 329.52 218.04" id="path3748" style="fill-rule:nonzero;fill:#bbbaba"/><path d="m329.52 218.04c-2.48 8.47-4.96 16.4-7.56 22.42-3.7-1.62-8.11-2.71-13.14-3.05 2.15-10.06 3.69-21.89 4.77-32.52 0.94-9.16 1.54-17.4 1.92-22.83 6.07 1.31 12.89 4.13 17.28 6.25-0.67-0.82-1.49-1.57-2.37-2.29 4.31 1.82 7.44 3.65 9.16 4.75-2.94 8.68-7.34 17.97-10.06 27.27" id="path3750" style="fill-rule:nonzero;fill:#bbbaba"/><path d="m249.38 159.75c0.56-5.61-1.16-14.15-1.1-19.59 0.16-15.35 0.43-27.45 0.43-37.9 0-6.15 4.49-10.19 15.25-13.07 7.54-2.02 24.02-5.19 33.11-5.23 4.18-0.01 8.3 0.2 12.22 0.66 0.12 7.23 0.69 26.2 1.2 45.19 0.57 21.4 1.06 42.8 0.73 47.38-0.03 0.36-0.07 0.78-0.13 1.24-8.23-1.51-17.16-1.86-24.48-1.24-7.76 0.65-11.2 3.17-15.68 5.66-3.95 2.19-8.7 4.36-11.12 7.41-4.47 1.94-8.26 3.85-11.15 5.4-0.71-1.39-1.29-2.63-1.69-3.66 0-11.4 1.39-22.02 2.41-32.26M315.8 177.85 315.8 177.85 315.8 177.85 315.8 177.85" id="path3752" style="fill-rule:nonzero;fill:#a09d9e"/><path d="m315.8 177.85c0.33-4.57 1.88-25.43 1.31-46.84-0.51-18.98-2.68-38.37-3.17-45.7 14.5 2.54 25.39 8.78 25.39 19.56 0 14.71-1.31 35.56-1.31 51.41 0 15.85 1.74 32.34 1.74 36.59-0.05 0.16-0.12-2.28-0.18-2.11-1.72-1.1-4.86-2.92-9.16-4.75-3.62-2.95-8.84-5.13-14.73-6.61 0.04-0.56 0.08-1.11 0.11-1.56" id="path3754" style="fill-rule:nonzero;fill:#a09d9e"/><path d="m179.12 703.89c0-2.16-1.03-3.92-2.29-3.92-1.26 0-2.29 1.76-2.29 3.92 0 2.16 1.03 3.92 2.29 3.92 1.26 0 2.29-1.76 2.29-3.92M181.3 669.48 181.3 669.48 181.3 669.48 181.3 669.48" id="path3756" style="fill-rule:nonzero;fill:#424a52"/><path d="m181.3 669.48c0-2.16-1.02-3.92-2.29-3.92-1.26 0-2.29 1.76-2.29 3.92 0 2.17 1.02 3.92 2.29 3.92 1.26 0 2.29-1.75 2.29-3.92" id="path3758" style="fill-rule:nonzero;fill:#424a52"/><path d="m179.99 627.22c0-2.16-1.02-3.92-2.29-3.92-1.26 0-2.29 1.76-2.29 3.92 0 2.16 1.02 3.92 2.29 3.92 1.26 0 2.29-1.76 2.29-3.92" id="path3760" style="fill-rule:nonzero;fill:#424a52"/><path d="m184.02 595.58c0-2.16-1.02-3.92-2.29-3.92-1.26 0-2.29 1.76-2.29 3.92 0 2.17 1.02 3.92 2.29 3.92 1.26 0 2.29-1.75 2.29-3.92" id="path3762" style="fill-rule:nonzero;fill:#424a52"/><path d="m155.92 600.48c0-2.16-1.02-3.92-2.29-3.92-1.26 0-2.29 1.76-2.29 3.92 0 2.17 1.02 3.92 2.29 3.92 1.27 0 2.29-1.75 2.29-3.92" id="path3764" style="fill-rule:nonzero;fill:#424a52"/><path d="m240 735.26c-2.11-3.28-3.98-8.24-5.58-14.46-1.6-6.22-2.96-13.69-4.04-21.98-1.09-8.29-1.58-17.26-2.14-26.73-0.55-9.47-1.16-19.44-1.16-29.21 0-9.77 0.27-19.48 0.83-28.67 0.56-9.2 3.11-16.72 4.25-24.46 0.77-5.19 0.09-13.26 2.61-21.09 1.73-5.4 3.77-9.41 6.11-11.58 3.44-3.2 7.34-6.41 14.37-8.71 3.71-1.21 13.02-3.06 26.76-5.15 9.55-1.45 20.2-0.3 31.18-0.95 10.98-0.65 22.29-3.12 33.62-3.03 11.34 0.09 19.8 1.82 30.41 2.6 10.61 0.78 23.37 0.6 32.18 2.01 8.81 1.41 15.05 4.27 20.97 6.27 5.93 2 11.54 3.14 13.5 5.66 1.53 1.96 3.15 6 4.78 11.61 1.63 5.61 4.54 10.23 6.11 18.45 1.57 8.22 1.81 20.02 3.15 29.81 1.35 9.79 2.54 20.1 3.49 30.42 0.95 10.32-0.94 21.01-0.55 30.82 0.39 9.82 3.07 18.75 2.74 27.02-0.33 8.27-1.07 15.51-2.3 21.2-1.23 5.69-4.68 8.96-6.97 11.03-3.24 2.93-7.07 6.34-14.37 8.49-7.3 2.15-18.17 6.26-28.32 7.63-10.15 1.38-19.57 0.03-31.36 0.65-11.79 0.62-23.5-1.85-35.73-1.96-12.23-0.11-24.71 4.32-36.16 3.48-11.45-0.84-22.47-4.22-31.94-5.77-9.47-1.54-16.24-4.63-22.52-6.86-6.28-2.23-12.06-3.62-13.94-6.53" id="path3766" style="fill-rule:nonzero;fill:#424a52"/><path d="m237.82 759.65c0-3.37-1.5-8.14-3.7-10.35-2.21-2.21-5.13-1.85-8.49-1.85-3.37 0-6.42 1.36-8.63 3.57-2.21 2.21-4.44 4.38-4.44 7.75 0 3.37 1.71 8.57 3.92 10.78 2.21 2.21 5.78 2.29 9.15 2.29 3.37 0 5.63-2.04 7.84-4.25 2.21-2.21 4.36-4.58 4.36-7.95" id="path3768" style="fill-rule:nonzero;fill:#424a52"/><path d="m233.9 759.65c0-2.28-0.93-4.35-2.43-5.85-1.5-1.5-3.57-2.42-5.85-2.42-2.29 0-5.04 0.03-6.53 1.52-1.5 1.5-1.74 4.47-1.74 6.75 0 2.29 0.93 4.36 2.42 5.86 1.5 1.5 3.57 2.42 5.85 2.42 2.29 0 4.35-0.93 5.85-2.42 1.5-1.5 2.43-3.57 2.43-5.85" id="path3770" style="fill-rule:nonzero;fill:#bbbaba"/><path d="m484.27 765.41c2.59-2.15 5.31-6.35 5.6-9.45 0.29-3.11-1.85-5.13-3.99-7.72-2.15-2.6-5.15-4.07-8.26-4.37-3.11-0.29-6.21-0.62-8.8 1.53-2.6 2.15-5.51 6.79-5.8 9.9-0.3 3.11 1.92 5.91 4.07 8.5 2.15 2.6 5.17 3.04 8.28 3.33 3.11 0.29 6.31 0.43 8.9-1.71" id="path3772" style="fill-rule:nonzero;fill:#424a52"/><path d="m481.77 762.39c1.76-1.46 2.76-3.49 2.96-5.6 0.2-2.1-0.41-4.29-1.87-6.05-1.46-1.76-3.24-3.86-5.34-4.06-2.11-0.2-4.55 1.51-6.31 2.97-1.76 1.46-2.76 3.49-2.96 5.6-0.19 2.11 0.41 4.3 1.87 6.06 1.46 1.76 3.49 2.76 5.6 2.96 2.11 0.2 4.3-0.41 6.06-1.87" id="path3774" style="fill-rule:nonzero;fill:#bbbaba"/><path d="m461.24 528.98c-3.19 1.06-7.25 3.99-8.65 6.78-1.4 2.8-0.14 5.45 0.93 8.64 1.06 3.2 3.32 5.66 6.12 7.06 2.79 1.39 5.56 2.83 8.76 1.76 3.19-1.06 7.59-4.33 8.99-7.13 1.4-2.79 0.34-6.21-0.72-9.4-1.06-3.19-3.71-4.7-6.51-6.1-2.79-1.4-5.72-2.68-8.92-1.62" id="path3776" style="fill-rule:nonzero;fill:#424a52"/><path d="m462.48 532.69c-2.17 0.72-3.84 2.26-4.79 4.15-0.95 1.89-1.17 4.15-0.45 6.32 0.72 2.17 1.62 4.77 3.51 5.72 1.89 0.95 4.79 0.24 6.96-0.48 2.17-0.72 3.84-2.26 4.79-4.15 0.95-1.9 1.17-4.15 0.45-6.32-0.72-2.17-2.26-3.84-4.15-4.79-1.89-0.95-4.15-1.17-6.32-0.45" id="path3778" style="fill-rule:nonzero;fill:#bbbaba"/><path d="m235.35 523.69c-2.28-2.48-6.61-4.97-9.73-5.1-3.12-0.13-5.03 2.11-7.5 4.39-2.48 2.28-3.8 5.35-3.93 8.47-0.13 3.12-0.3 6.24 1.98 8.71 2.28 2.48 7.07 5.14 10.19 5.27 3.12 0.13 5.8-2.23 8.28-4.51 2.48-2.28 2.76-5.31 2.89-8.44 0.13-3.12 0.1-6.32-2.18-8.8" id="path3780" style="fill-rule:nonzero;fill:#424a52"/><path d="m232.47 526.35c-1.55-1.68-3.63-2.57-5.75-2.66-2.11-0.09-4.27 0.63-5.94 2.18-1.69 1.55-3.69 3.43-3.78 5.55-0.09 2.12 1.74 4.47 3.29 6.15 1.55 1.68 3.63 2.57 5.75 2.66 2.12 0.08 4.27-0.64 5.95-2.19 1.68-1.54 2.58-3.63 2.66-5.75 0.09-2.11-0.63-4.27-2.18-5.95" id="path3782" style="fill-rule:nonzero;fill:#bbbaba"/><path d="m232.58 643.12c0.01-1.48 0.03-2.96 0.05-4.44 9.65-1.13 18.09 0.02 26.1-0.14 8.44-0.16 16.43-1.8 18.7-1.64 0.53 0.04 1 0.39 1.48 1 0.48 0.6 0.98 1.46 1.56 2.48 0.69 1.23 1.52 2.7 2.65 3.78 1.13 1.09 2.58 1.81 4.52 1.55 1.83-0.24 2.93-1.5 3.66-3.29 0.73-1.79 0.16-5.41 0.54-7.8 0.35-2.22 1.65-2.95 2.13-4.39 0.48-1.44 1.08-2.29 1.92-2.17 0.81 0.32 1.65 2.61 2.43 5.53 0.77 2.91 1.49 6.44 2.06 9.26 1.27 6.31 2.38 14.88 4.53 20.09 2.15 5.21 5.36 7.07 9.81 7.3 0.78 0.04 1.53-0.07 2.22-0.33 0.69-0.26 1.32-0.67 1.87-1.22 2-1.97 1.44-7.03 1.78-11.84 0.34-4.82 1.58-9.39 1.34-15.73-0.2-5.25-0.42-11.15-0.18-16.13 0.24-4.98 0.94-9.05 2.59-10.65 0.24-0.24 0.5-0.41 0.8-0.51 0.29-0.1 0.61-0.14 0.98-0.11 2.89 0.2 5.3 3.81 7.1 11.77 1.8 7.96 3.01 20.28 4.17 28.74 1.69 12.38 3.16 22.37 5.15 29.21 1.99 6.84 4.51 10.53 8.32 10.34 3.85-0.2 5.78-4.83 6.52-14.2 0.53-6.62-0.67-13.86-1.07-25.33-0.16-4.77 0.74-11.71 0.48-17.34-0.41-8.68-0.91-19.57-0.95-28.56-0.03-9 0.4-16.09 1.87-17.17 1.94 0.23 3.44 6.65 4.58 14.7 1.14 8.06 1.94 17.75 2.5 24.52 0.95 11.57 2.09 20.4 3.28 27.33 1.19 6.94 2.43 11.98 4.74 13.83 0.5 0.4 1.05 0.68 1.62 0.85 0.57 0.16 1.16 0.2 1.76 0.12 3.92-0.56 5.7-4.49 6.4-10.2 0.37-3 1.24-5.62 1.17-9.38-0.06-3.4-1.63-19.77-1.6-23.59 0.02-3.82 0.3-6.88 1.13-7.51 1.7 0.42 2.87 2.32 3.75 4.86 0.89 2.54 1.49 5.71 2.06 8.68 0.68 3.58 1.37 7.22 2.63 9.84 1.27 2.63 3.1 4.24 6.06 3.77 2.7-0.43 4.3-1.72 5.31-3.29 1.02-1.57 1.45-3.41 1.81-4.97 0.38-1.65 0.68-2.74 1.17-3.43 0.48-0.69 1.15-0.98 2.27-1.03 3.75-0.16 38.51-0.16 46.02-0.02 0.41 4.18 0.78 8.39 1.11 12.6 0.78 9.87 1.34 19.72 1.63 29.04 0.3 9.33-0.75 20.84-1.03 28.63-0.28 7.79 0.2 11.86-0.76 17.12-0.96 5.26-2.29 9.02-4.03 10.76-2.29 2.29-6.98 4.28-13.46 5.97-6.48 1.69-14.75 3.07-24.21 4.16-12.6 1.44-22.01-0.04-30.72 0.33-11.24 0.48-23.71 2.67-35.52 2.55-11.81-0.13-23.43 1.23-34.62 0.5-11.18-0.73-21.94-3.55-31.29-4.89-9.35-1.34-17.48-2.98-23.8-4.92-6.31-1.94-9.93-5.5-12-8.05-2.13-2.63-4.85-5.76-6.41-11.52-1.56-5.77-2.84-12.87-3.84-20.84-1.01-7.97 0.27-15.89-0.2-25.14-0.47-9.25-2.68-19.82-2.63-29.4M430.92 632.09 430.92 632.09 430.92 632.09 430.92 632.09" id="path3784" style="fill-rule:nonzero;fill:#1f286d"/><path d="m430.92 632.09c-9.54 0-17.51-1.55-21.45-1.39-2.7 0.11-5.57 2.85-6.58 4.32-1.01 1.46-1.43 3.28-1.79 4.81-0.37 1.59-0.68 2.8-1.24 3.67-0.55 0.87-1.35 1.4-2.68 1.61-1.08 0.18-1.9-1.17-2.56-3.2-0.66-2.03-1.18-4.73-1.66-7.27-0.68-3.55-1.4-7.34-2.67-10.42-1.28-3.08-3.12-5.46-6.04-6.19-0.63-0.16-1.24-0.17-1.82-0.05-0.58 0.12-1.12 0.38-1.59 0.77-1.53 1.25-2.92 1.22-3.17 5-0.25 3.78 0.65 11.38 0.97 17.83 0.26 5.27 0.59 11.88 0.31 17.25-0.28 5.37-1.16 9.5-3.3 9.81-0.03 0.01-0.07 0.01-0.13 0-0.06-0.02-0.13-0.06-0.24-0.14-1.82-1.45-3.14-7.1-4.16-14.37-1.02-7.26-1.75-16.14-2.4-24.05-0.49-6-1.86-9.73-2.37-14.6-0.6-5.69-0.35-12.3-1.17-16.26-1.52-7.35-3.62-11.55-6.99-11.94-0.55-0.07-1.07-0.01-1.57 0.16-0.49 0.17-0.96 0.45-1.38 0.84-2.1 1.96-3.01 7.23-3.23 15.48-0.11 4.28 0.65 12.85 0.84 18.68 0.17 5.41-0.26 7.98 0.05 14.64 0.39 8.53 1 21.66 0.93 32.69-0.07 11.04-0.82 19.96-3.15 20.08-2.2 0.11-4.06-5.3-5.6-12.56-1.54-7.26-2.79-16.35-3.78-23.6-0.5-3.65-1.03-10.14-1.52-13.4-1.3-8.74-2.56-12.94-4.17-18.43-2.21-7.54-5.02-11.78-9.2-12.06-0.92-0.06-1.79 0.05-2.6 0.34-0.81 0.29-1.54 0.75-2.18 1.37-2.27 2.2-3.29 6.38-3.69 11.64-0.39 5.26-0.15 11.59 0.09 18.1 0.19 5.13 0.4 10.61 0.21 15.14-0.19 4.54-0.77 8.13-2.16 9.49-0.17 0.16-0.33 0.28-0.52 0.35-0.19 0.07-0.39 0.09-0.63 0.08-2.93-0.15-5.09-3.69-6.78-8.45-1.69-4.76-2.9-10.75-3.92-15.8-1.01-5.01-0.34-9.97-1.49-13.11-1.15-3.14-4.13-4.47-6.26-4.77-2.83-0.4-4.52 1.12-5.61 3.37-1.08 2.25-1.56 5.23-1.96 7.74-0.17 1.07-0.41 2.6-0.72 3.91-0.3 1.31-0.67 2.41-1.08 2.62-0.56 0.07-3.31-0.78-3.99-1.98-0.65-1.17-0.63-3.87-1.6-4.91-0.97-1.05-3.31-1.51-4.93-1.62-2.32-0.16-7.75-0.73-16.34-0.56-8.01 0.16-17.79 0.68-27.56 1.94 0.14-6.71 0.39-13.32 0.78-19.67 0.55-8.99 1.34-17.45 2.37-24.92 1.03-7.47 2.3-13.93 3.79-18.94 1.49-5.01 3.22-8.55 5.15-10.17 3.27-2.72 7.62-6.79 14.38-8.71 6.75-1.92 15.92-1.69 25.11-2.87 9.19-1.17 19.34-1.99 29.92-2.47 10.58-0.49 21.63-2.22 32.54-2.06 8.11 0.11 18.15 1.93 31.84 2.91 10.18 0.73 19.74 1.73 28.14 2.98 8.4 1.25 15.48 0.67 21.05 2.39 5.57 1.71 9.64 5.72 11.33 7.84 1.69 2.12 3.36 6.21 4.97 11.75 1.61 5.55 1 12.07 2.43 20.05 1.43 7.98 4.91 17.43 6.07 26.85 0.5 4.14 0.98 8.37 1.41 12.65-5.36-0.14-14.31-0.21-23.05-0.21" id="path3786" style="fill-rule:nonzero;fill:#1f286d"/><path d="m313.84 234.7c4.34 1.45 4.57-4.57 1.31-5.23-3.27-0.65-3.27 4.57-1.31 5.23M320.38 202.03 320.38 202.03 320.38 202.03 320.38 202.03" id="path3788" style="fill-rule:nonzero;fill:#424a52"/><path d="m320.38 202.03c4.34 1.45 4.57-4.57 1.31-5.23-3.27-0.65-3.27 4.57-1.31 5.23" id="path3790" style="fill-rule:nonzero;fill:#424a52"/><path d="m322.34 171.32c4.34 1.45 4.57-4.57 1.31-5.23-3.27-0.65-3.27 4.57-1.31 5.23" id="path3792" style="fill-rule:nonzero;fill:#424a52"/><path d="m321.68 136.68c4.34 1.45 4.57-4.57 1.31-5.23-3.27-0.65-3.27 4.57-1.31 5.23" id="path3794" style="fill-rule:nonzero;fill:#424a52"/><path d="m321.03 107.93c4.34 1.45 4.57-4.57 1.31-5.23-3.27-0.65-3.27 4.57-1.31 5.23" id="path3796" style="fill-rule:nonzero;fill:#424a52"/><path d="m204.06 74.6c2.43 0.97 5.88-4.57 3.92-5.23-1.96-0.65-7.19 3.92-3.92 5.23" id="path3798" style="fill-rule:nonzero;fill:#424a52"/><path d="m236.08 88.33c2.43 0.97 5.88-4.57 3.92-5.23-1.96-0.65-7.19 3.92-3.92 5.23" id="path3800" style="fill-rule:nonzero;fill:#424a52"/><path d="m183.66 48.97c0-3.86-1.23-7.34-3.21-9.87-1.99-2.52-4.73-4.08-7.77-4.08-3.03 0-4.92 2.48-6.91 5.01-1.99 2.52-4.07 5.09-4.07 8.94 0 3.85 1.54 6.77 3.53 9.3 1.99 2.52 4.42 4.65 7.45 4.65 3.03 0 5-2.4 6.98-4.92 1.99-2.52 4-5.18 4-9.03" id="path3802" style="fill-rule:nonzero;fill:#424a52"/><path d="m176.19 48.97c0-2.38-1.21-4.32-2.7-4.32-1.49 0-2.7 1.93-2.7 4.32 0 2.38 1.21 4.32 2.7 4.32 1.49 0 2.7-1.93 2.7-4.32" id="path3804" style="fill-rule:nonzero;fill:#bbbaba"/><path d="m262.71 14.16c0-3.85-0.15-6.52-2.13-9.04C258.59 2.59 254.85 0 251.82 0c-3.03 0-4.79 2.59-6.77 5.11-1.99 2.52-3.22 6.01-3.22 9.86 0 3.85 1.23 7.34 3.22 9.86 1.99 2.52 4.28 2.66 7.32 2.66 3.03 0 6.22-0.14 8.21-2.66 1.99-2.52 2.13-6.83 2.13-10.68" id="path3806" style="fill-rule:nonzero;fill:#424a52"/><path d="m256.32 14.98c0-2.38-1.21-4.32-2.7-4.32-1.49 0-2.7 1.93-2.7 4.32 0 2.38 1.21 4.32 2.7 4.32 1.49 0 2.7-1.93 2.7-4.32" id="path3808" style="fill-rule:nonzero;fill:#bbbaba"/><path d="m414.61 23.88c0-3.85-1.23-7.34-3.22-9.86-1.99-2.52-4.73-4.09-7.77-4.09-3.03 0-7.14 1.43-9.13 3.95-1.99 2.52-1.85 6.15-1.85 10 0 3.85 2.31 6.54 4.3 9.06 1.99 2.52 3.65 4.88 6.68 4.88 3.03 0 5.78-1.56 7.77-4.08 1.99-2.52 3.22-6.01 3.22-9.86" id="path3810" style="fill-rule:nonzero;fill:#424a52"/><path d="m407.13 23.88c0-2.38-1.2-4.32-2.69-4.32-1.49 0-2.7 1.93-2.7 4.32 0 2.38 1.21 4.32 2.7 4.32 1.49 0 2.69-1.93 2.69-4.32" id="path3812" style="fill-rule:nonzero;fill:#bbbaba"/><path d="m430.92 632.09c8.75 0 17.69 0.07 23.05 0.21 0.14 1.31 0.26 2.62 0.39 3.94-7.51-0.14-42.27-0.14-46.02 0.02-1.12 0.05-1.78 0.34-2.27 1.03-0.48 0.69-0.78 1.78-1.17 3.43-0.36 1.56-0.79 3.41-1.81 4.97-1.01 1.57-2.61 2.85-5.31 3.29-2.96 0.47-4.8-1.14-6.06-3.77-1.26-2.62-1.96-6.27-2.63-9.84-0.57-2.97-1.17-6.15-2.06-8.68-0.88-2.54-2.05-4.44-3.75-4.86-0.83 0.62-1.1 3.69-1.13 7.51-0.03 3.82 1.54 20.19 1.6 23.59 0.07 3.76-0.8 6.38-1.17 9.38-0.7 5.71-2.48 9.64-6.4 10.2-0.6 0.09-1.19 0.05-1.76-0.12-0.57-0.16-1.11-0.45-1.62-0.85-2.32-1.85-3.55-6.89-4.74-13.83-1.19-6.93-2.33-15.76-3.28-27.33-0.56-6.78-1.35-16.46-2.5-24.52-1.14-8.06-2.63-14.47-4.58-14.7-1.47 1.07-1.9 8.17-1.87 17.17 0.04 8.99 0.54 19.89 0.95 28.56 0.26 5.63-0.65 12.57-0.48 17.34 0.4 11.47 1.59 18.71 1.07 25.33-0.74 9.38-2.67 14-6.52 14.2-3.81 0.2-6.33-3.5-8.32-10.34-1.99-6.84-3.46-16.82-5.15-29.21-1.16-8.47-2.36-20.78-4.17-28.74-1.8-7.96-4.21-11.57-7.1-11.77-0.37-0.03-0.69 0.01-0.98 0.11-0.29 0.1-0.55 0.27-0.8 0.51-1.65 1.6-2.35 5.66-2.59 10.65-0.24 4.98-0.02 10.88 0.18 16.13 0.24 6.34-1 10.92-1.34 15.73-0.34 4.81 0.22 9.87-1.78 11.84-0.55 0.55-1.18 0.95-1.87 1.22-0.69 0.26-1.44 0.38-2.22 0.33-4.45-0.23-7.66-2.08-9.81-7.3-2.15-5.21-3.26-13.78-4.53-20.09-0.57-2.82-1.29-6.35-2.06-9.26-0.78-2.91-1.62-5.2-2.43-5.53-0.84-0.12-1.44 0.73-1.92 2.17-0.48 1.44-1.78 2.17-2.13 4.39-0.38 2.39 0.19 6.01-0.54 7.8-0.73 1.79-1.83 3.05-3.66 3.29-1.94 0.26-3.38-0.46-4.52-1.55-1.13-1.09-1.96-2.55-2.65-3.78-0.57-1.02-1.07-1.88-1.56-2.48-0.48-0.6-0.95-0.96-1.48-1-2.27-0.16-10.26 1.47-18.7 1.64-8.02 0.16-16.46-0.99-26.1 0.14 0.02-1.34 0.04-2.66 0.07-3.99 9.76-1.26 19.54-1.78 27.56-1.94 8.59-0.17 14.03 0.4 16.34 0.56 1.62 0.12 3.95 0.58 4.93 1.62 0.98 1.05 0.95 3.75 1.6 4.91 0.67 1.2 3.43 2.05 3.99 1.98 0.41-0.21 0.77-1.31 1.08-2.62 0.3-1.31 0.55-2.84 0.72-3.91 0.4-2.51 0.88-5.49 1.96-7.74 1.08-2.25 2.78-3.77 5.61-3.37 2.13 0.31 5.11 1.63 6.26 4.77 1.15 3.14 0.48 8.1 1.49 13.11 1.02 5.05 2.23 11.04 3.92 15.8 1.69 4.76 3.85 8.29 6.78 8.45 0.24 0.01 0.44-0.01 0.63-0.08 0.19-0.07 0.35-0.18 0.52-0.34 1.38-1.37 1.97-4.96 2.16-9.49 0.19-4.53-0.02-10.01-0.21-15.14-0.24-6.51-0.48-12.85-0.09-18.1 0.39-5.25 1.41-9.43 3.69-11.64 0.64-0.62 1.38-1.09 2.18-1.37 0.8-0.29 1.68-0.41 2.6-0.34 4.18 0.28 6.98 4.52 9.2 12.06 1.62 5.49 2.88 9.69 4.17 18.43 0.49 3.25 1.02 9.74 1.52 13.4 0.99 7.25 2.23 16.34 3.78 23.6 1.55 7.26 3.4 12.67 5.6 12.56 2.33-0.12 3.08-9.05 3.15-20.08 0.07-11.03-0.54-24.17-0.93-32.69-0.31-6.66 0.12-9.23-0.05-14.64-0.18-5.83-0.95-14.4-0.84-18.68 0.22-8.25 1.13-13.52 3.23-15.48 0.42-0.39 0.88-0.67 1.38-0.84 0.5-0.17 1.03-0.22 1.57-0.16 3.37 0.39 5.47 4.59 6.99 11.94 0.82 3.95 0.57 10.57 1.17 16.26 0.51 4.87 1.88 8.6 2.37 14.6 0.65 7.91 1.38 16.79 2.4 24.05 1.02 7.26 2.34 12.91 4.16 14.37 0.11 0.09 0.19 0.13 0.24 0.14 0.06 0.02 0.1 0.01 0.13 0.01 2.15-0.31 3.02-4.44 3.3-9.81 0.27-5.37-0.05-11.98-0.31-17.25-0.32-6.45-1.21-14.05-0.97-17.83 0.25-3.78 1.64-3.74 3.17-5 0.47-0.39 1.01-0.65 1.59-0.77 0.58-0.12 1.19-0.11 1.82 0.05 2.91 0.73 4.75 3.11 6.04 6.19 1.28 3.08 2 6.87 2.67 10.42 0.48 2.54 1 5.24 1.66 7.27 0.66 2.03 1.48 3.38 2.56 3.2 1.34-0.21 2.13-0.74 2.68-1.61 0.56-0.87 0.87-2.08 1.24-3.67 0.36-1.53 0.78-3.35 1.79-4.81 1.01-1.46 3.88-4.2 6.58-4.32 3.94-0.16 11.92 1.39 21.45 1.39" id="path3814" style="fill-rule:nonzero;fill:#74c128"/><path d="m173.35 97.48c0.53-0.22 1.07-0.43 1.6-0.65l21.64-8.3c1.06-0.38 2.13-0.75 3.19-1.12 3.89 3.06 6.68 7.36 13.65 8.77 7.63 1.54 20.27-0.39 30.45-0.63-0.71 1.63-1.15 3.36-1.27 5.2-0.22 3.6-0.72 7.85-1.26 12.53-9.29-0.94-22.44-1.48-34.46-2.73-14.13-1.47-26.68-3.92-34.85-5.23-4.12-0.66-7.41-1.9-10.01-3.53l11.45-4.4c-0.04 0.03-0.09 0.05-0.13 0.08M428.63 82.23 428.63 82.23 428.63 82.23 428.63 82.23" id="path3816" style="fill-rule:nonzero;fill:#bbbaba"/><path d="m428.63 82.23c-6.86 2.61-22.49 9.37-41.77 14.92-15.94 4.59-35.31 12.75-41.54 15.43 0.24-3.29 0.45-6.21 0.54-8.57 0.41-11.24-8.12-21.83-21.78-26.14-8.18-2.58-18.98-1.07-28.62-1.23-11.27-0.18-22.62 1.29-31.89 4.37-8.51 2.82-15.26 7.01-18.63 12.51-8.32-0.12-15.88-0.84-22.42-2.15-6.88-1.39-12.67-3.39-17.19-5.92 3.88-1.33 7.76-2.63 11.64-3.9 7.35-2.41 14.66-4.72 21.81-6.95 7.15-2.24 14.13-4.4 20.83-6.52 5.88-0.16 16.91 0.16 30.75 0.69 13.85 0.53 30.51 1.27 47.66 1.92 17.15 0.65 35.6 3.5 51.41 3.7 14.72 0.19 27.12-1.9 36.68-2.84l16.61 0.66c-2.13 4.44-8.34 7.85-14.07 10.03" id="path3818" style="fill-rule:nonzero;fill:#bbbaba"/><path d="m194.91 89.11c0.56-0.2 1.12-0.39 1.67-0.59l-21.63 8.3c6.52-2.7 13.2-5.27 19.96-7.72" id="path3820" style="fill-rule:nonzero;fill:#bbbaba"/><path d="m156.19 96.09c-2.78-4.33-3.43-9.39-3.11-13.64 11.21-4.57 24.17-10.59 37.14-16.73-1.34 3.48-1.58 6.76-0.79 9.77 0.96 3.66 3.43 6.94 7.21 9.72-0.2 0.09-0.4 0.18-0.57 0.26-8.13 3.7-15.92 7.72-22.59 11.94l-11.45 4.4c-2.56-1.6-4.46-3.56-5.84-5.71M395.85 68.92 395.85 68.92 395.85 68.92 395.85 68.92" id="path3822" style="fill-rule:nonzero;fill:#a09d9e"/><path d="m395.85 68.92c-13.64-0.91-29.57-1.87-46.07-2.73-16.5-0.86-33.3-3.5-49.23-4-15.08-0.48-29.34 0.96-40.94 1.25-2.73-5.72-6.45-14.43-5.89-18.9-3.97 5.67-1.54 14.79 1.31 19.66-3.07 0.85-7.19 2.06-12.03 3.59-5.36 1.69-28.93 10.33-41.25 15.28-3.59-2.94-5.67-6.82-6.62-10.43-0.83-3.16-0.8-6.1 0.58-9.53 3.72-1.77 7.42-3.53 11.05-5.26 18.05-8.58 34.55-16.26 44.35-19.19 13.66 0.66 21.78 0.35 40.3 1.74 17.8 1.34 45.91 4.37 63.93 5.86 12.65 1.04 30.5 1.1 41.5 1.99 20.96 1.7 31.92 3.92 39.21 4.14 5.23 4.9 7.84 11.27 7.43 17.07-0.07 0.95-0.34 1.87-0.77 2.74l-16.61-0.66c0.7-0.07 1.43-0.15 2.1-0.2-7.35-0.65-18.7-1.51-32.34-2.42" id="path3824" style="fill-rule:nonzero;fill:#a09d9e"/></g></g><g transform="matrix(0.5070384,0,0,0.5070384,65.47524,-212.93502)" id="MAIN_CHARACTER_5A"><title id="title953">Plankton</title><g id="g12"><g clip-path="url(#clipPath18)" id="g14"><g id="g20"><g clip-path="url(#clipPath26)" id="g22"/></g></g></g><g id="g28"><g clip-path="url(#clipPath34)" id="g30"><g id="g36"><g clip-path="url(#clipPath42)" id="g38"/></g></g></g><g id="g44"><g clip-path="url(#clipPath50)" id="g46"><g id="g52"><g clip-path="url(#clipPath58)" id="g54"/></g></g></g><g id="g60"><g clip-path="url(#clipPath66)" id="g62"><g id="g68"><g clip-path="url(#clipPath74)" id="g70"/></g></g></g><g id="g76"><g clip-path="url(#clipPath82)" id="g78"><g transform="translate(223.52,595.095)" id="g84"><path id="path86" d="M0 0C0.27 2.06 0.28 3.8 0.1 5.28L2.35 6.3 1.85 7.4-0.1 6.51c-0.4 1.89-1.13 3.24-2 4.14-1.38 1.44-3.22 2.25-5.43 2.08-0.31-0.02-0.61-0.06-0.91-0.1l-0.06 2.44-1.2-0.03 0.07-2.59c-2.08-0.4-3.93-1.12-5.62-2.13-0.24 0.98-0.57 1.85-1.02 2.62l2.93 2.24-0.73 0.95-2.88-2.2c-0.82 1-1.91 1.73-3.33 2.14-2.91 0.84-6.07-0.16-8.75-1.97l-0.69 2.7-1.16-0.3 0.81-3.16c-0.42-0.33-0.82-0.68-1.21-1.04-2.14-2.01-3.21-3.97-3.21-3.97 0.04 0.04 2.16 1.81 4.86 3.31l0.55-2.14 1.16 0.3-0.62 2.42c2.65 1.32 5.65 2.16 7.74 0.87 0.37-0.23 0.73-0.63 1.03-1.32l-1.89-1.44 0.73-0.95 1.55 1.19c0.19-0.81 0.32-1.85 0.36-3.16-2.11-2.22-3.78-5.22-3.78-5.22 1.24 1.27 2.5 2.37 3.77 3.17-0.04-1.28-0.15-2.76-0.34-4.47l-1.46 0.18-0.14-1.19 1.46-0.18c-0.29-2.28-0.71-4.94-1.31-8.02l-2.84 0.19-0.08-1.2 2.69-0.18c-1.44-7.21-3.76-16.65-7.32-29-6.27-0.98-9.98-6.33-11.32-8.63-1.4 0.44-2.43 0.84-2.83 1.04-0.52 0.25-0.82-0.59-0.12-0.97 0.45-0.25 0.28-0.35 0.11-0.49-0.18-0.14-0.51-0.11-0.66-0.11-0.3 0-0.45-0.45-0.22-0.67 0.23-0.22 0.53-0.52 0.23-0.52-0.3 0-1.11-0.98 0.08-1.2 0.21-0.04 0.64-0.15 1.22-0.3-1.17-1.86-2.95-4.89-1.97-9.55 0.04-0.16 0.09-0.32 0.14-0.48-1.09-1.75-1.96-4.22-2.33-5.35-1.6 0.63-2.92 0.91-2.92 0.91 0 0-0.02-1.3-0.14-2.65-0.36 0.32-0.7 0.59-0.99 0.78-0.92 0.6-1.89 0.72-2.74 0.34-0.85-0.39-1.39-1.26-1.6-2.32-0.33-1.66-0.07-2.97 0.28-3.89-0.22-0.19-0.56-0.53-1.21-1.16l-4.06-3.86c-3.69-3.4-4.5-4.35-4.03-5 1.8-2.44 6.11-3.2 9.17-3.36-1.9-0.77-3.23-2.49-3.39-3.68-0.08-0.61 0.1-1.12 0.51-1.39 0.52-0.34 1.64-0.04 3.16 0.46-1.33-7.88-0.9-13.63 1.07-17.57 0.43-2.77 3.59-12.09 3.59-12.09 1-2.68 2.43-5.31 3.67-5.75 0.38-0.13 0.77-0.09 1.13 0.13 1.49 0.9-0.57 7.59-2.26 12.06 0.11-0.05 0.23-0.09 0.34-0.14 2.02-0.76 3.91-1.1 5.6-1.19 3.16-0.26 5.15 0.28 6.39 0.91 0.72-1.68 2.86-5.95 4.21-8.5 0.08-0.14 2.53-5.4 4.55-4.8 1.27 0.38 1 1.94 0.45 3.8-0.81 2.72-2.66 7.03-5.42 12.69 0.8 0.69 1.76 1.88 2.7 3.94 1.54 3.38 1.93 7.49 2.22 11.04 0.61 7.44 3.95 18.32 6.91 27.92l2.58 8.54c1.78 6.14 1.63 12.58-0.74 16.43 2.58 5 8.83 16.73 13.07 28.36l2.3-0.66 0.33 1.15-2.23 0.64c1.01 2.87 1.89 5.71 2.55 8.44l2.86-0.25 0.11 1.2-2.69 0.24C-0.42-2.7-0.17-1.32 0 0Zm-52.59-81.74c-0.97 0.09-3.3 0.39-4.36 0.56 0.4 0.58 1.43 1.89 4.06 4.87 0 0 0.15 0.17 0.27 0.31 0.06-0.02 0.13-0.04 0.13-0.04 0.33-0.11 0.82-0.28 1.37-0.14-0.67-2.03-1.14-3.96-1.47-5.56zM-4.65 3.1-3.97 3.42C-4.05 1.43-4.43-0.95-5.12-3.72l-1.92 0.17-0.11-1.2 1.72-0.15c-0.62-2.28-1.42-4.82-2.43-7.59l-2.47 0.71-0.33-1.15 2.39-0.69c-0.6-1.61-1.25-3.29-1.97-5.05-3.5-8.56-7.27-16.34-9.09-20.07-0.31-0.63-0.53-1.1-0.7-1.45-1.18 0.78-2.52 1.32-3.93 1.59 1.17 3.82 5.21 18.15 7.31 28.77l1.71-0.12 0.08 1.2-1.56 0.11c0.13 0.7 0.26 1.39 0.37 2.05 0.33 1.98 0.63 3.9 0.86 5.75l2.42-0.3 0.14 1.19-2.42 0.3c0.31 2.84 0.41 5.45 0.18 7.71 1.96 0.96 3.78 1.52 5.31 1.71L-9.5 7.43-8.3 7.47-8.36 9.84C-7.82 9.84-7.33 9.81-6.9 9.71-5.65 9.43-4.83 8.76-4.45 7.69-4.16 6.87-4 5.88-3.96 4.74L-5.15 4.2-4.65 3.1" style="fill-rule:nonzero;fill:#231f20"/></g></g></g><g transform="translate(222.444,595.807)" id="g88"><path id="path90" d="m0 0c-0.2-1.5-0.49-3.09-0.87-4.72l-2.22 0.2c0.73 2.99 1.12 5.54 1.16 7.66L0.12 4.08C0.23 2.85 0.2 1.49 0 0" style="fill-rule:nonzero;fill:#007236"/></g><g transform="translate(216.048,606.866)" id="g92"><path id="path94" d="m0 0c1.71 0.1 3.36-0.56 4.52-1.8 0.91-0.98 1.52-2.31 1.83-3.93L4.44-6.61c-0.06 1.09-0.23 2.04-0.51 2.85-0.48 1.38-1.57 2.29-3.15 2.64-0.51 0.11-1.08 0.16-1.69 0.14L-0.94-0.09C-0.63-0.05-0.32-0.02 0 0" style="fill-rule:nonzero;fill:#007236"/></g><g transform="translate(213.913,606.589)" id="g96"><path id="path98" d="m0 0 0.02-0.81c-1.58-0.23-3.41-0.83-5.38-1.85-0.02 0.17-0.05 0.33-0.08 0.49C-3.84-1.18-2.02-0.4 0 0" style="fill-rule:nonzero;fill:#007236"/></g><g transform="translate(203.222,609.004)" id="g100"><path id="path102" d="m0 0c-2.22 1.37-5.17 0.75-7.86-0.44 2.43 1.37 5.21 2.32 7.63 1.67C0.96 0.91 1.89 0.31 2.59-0.56L1.28-1.56C0.94-0.85 0.52-0.32 0 0" style="fill-rule:nonzero;fill:#007236"/></g><g transform="translate(203.37,600.345)" id="g104"><path id="path106" d="M0 0 1.14 1.32C1.14 1.15 1.14 0.98 1.14 0.8L0 0" style="fill-rule:nonzero;fill:#231f20"/></g><g transform="translate(204.932,606.26)" id="g108"><path id="path110" d="m0 0 1.53 1.17c1.3-2.5 1.42-6.5 0.84-11.85l-2.21 0.27C0.67-5.73 0.62-2.26 0 0" style="fill-rule:nonzero;fill:#007236"/></g><g transform="translate(204.952,594.656)" id="g112"><path id="path114" d="M0 0 2.21-0.27C1.97-2.15 1.66-4.19 1.3-6.38 1.2-6.95 1.09-7.53 0.99-8.13l-2.27 0.16C-0.72-5.03-0.3-2.37 0 0" style="fill-rule:nonzero;fill:#007236"/></g><g transform="translate(203.432,585.497)" id="g116"><path id="path118" d="m0 0 2.28-0.15c-2.1-10.89-6.1-25.32-7.11-28.7-0.84 0.09-1.65 0.1-2.42 0.04C-3.95-17.36-1.54-7.74 0 0" style="fill-rule:nonzero;fill:#007236"/></g><g transform="translate(182.542,544.366)" id="g120"><path id="path122" d="m0 0 0.05 0.08c1.75-0.45 4.28-1.08 6.96-1.55 2.62-0.45 6.17-0.82 8.66-0.98 0.06-1.94-0.24-6.74-4.28-9.79-2.65-2-5.99-2.54-8.94-1.44-2.33 0.87-3.97 2.61-4.4 4.66C-2.89-4.59-1.08-1.72 0 0" style="fill-rule:nonzero;fill:#f4f3b8"/></g><g transform="translate(161.247,512.836)" id="g124"><path id="path126" d="M0 0C0.03 0.19 0.37 1.03 3.5 3.91L7.58 7.79C7.96 8.16 8.31 8.5 8.56 8.73 8.81 8.31 9.02 8.08 9.02 8.08c-0.01 0.02-0.52 2.88-0.22 5.01 0.1 0.74 0.49 1.33 1.04 1.58 0.54 0.25 1.18 0.15 1.82-0.27 0.49-0.32 0.94-0.69 1.34-1.06C13 13.34 13 13.33 13 13.32l0.04-0.01c0.89-0.83 1.49-1.71 1.48-2.25 0-0.14-0.05-0.32-0.33-0.49-1.26-0.73-3.07 1.37-3.09 1.39 0 0 0.22-0.67 0.64-1.34C12.04 9.71 11.95 8.3 11.66 7.67 11.51 7.33 11.28 7.11 10.98 7.02 10.69 6.92 10.38 7.03 10.1 7.12 9.8 7.23 9.35 7.38 9.05 7.01L8.67 6.58C3.99 1.27 4.07 0.98 4.18 0.61L4.25 0.36 4.54 0.25C5 0.11 8.14-0.3 9.5-0.43 9.29-1.53 9.16-2.41 9.08-2.98 4.77-2.88 1.31-1.73 0 0" style="fill-rule:nonzero;fill:#7cb2b0"/></g><g transform="translate(178.257,470.544)" id="g128"><path id="path130" d="m0 0c-0.1-0.06-0.19-0.07-0.3-0.03-0.92 0.32-1.96 3.13-2.59 4.8 0 0-2.04 5.43-3.16 9.1 0.85-0.99 1.85-1.81 2.98-2.46C-1.1 6.39 0.58 0.68 0 0" style="fill-rule:nonzero;fill:#7cb2b0"/></g><g transform="translate(206.159,536.08)" id="g132"><path id="path134" d="m0 0-2.57-8.52c-3.11-10.12-6.33-20.58-6.94-28.12-0.47-5.74-2.12-13.88-5.72-16.39 0 0 0.35 0 0.91 0.28 2.96-6.05 6.63-13.56 5.52-14.08-1.12-0.52-2.61 2.31-3.25 3.52-1.52 2.89-3.63 7.13-4.23 8.55 0.7 0.52 0.95 0.97 0.95 0.97-0.06-0.03-6.14-3.03-13.43-0.3-6.5 2.44-8.79 10.12-6.83 22.82 0.06 0.02 0.11 0.04 0.17 0.06l0.9 0.36c0.67 0.3 0.79 0.35 1.34-0.12l0.7-0.63c1.57-1.43 4.66-4.29 7.13-5.2 2.97-1.09 5.46-1.09 8.69 2.29 3.08 3.23 3.93 7.28 3.93 7.28-0.02-0.03-1.99-3.62-4.98-6.75-2.89-3.03-4.75-2.73-7.48-1.72-2.29 0.84-5.11 3.43-6.63 4.81l-0.72 0.65c-1.01 0.87-1.64 0.59-2.36 0.27l-0.81-0.33c-2.52-0.84-3.17-0.82-3.33-0.73-0.08 0.06-0.12 0.23-0.09 0.46 0.1 0.76 0.98 2.19 2.9 2.81 2.57 0.83 4.27-0.28 7.07-2.33 3.27-2.39 5.7-4.01 7.71-2.84 1.88 1.1 5.11 5.51 6.76 7.74 1.07 1.45 2.07 2.22 2.75 2.12 0.5-0.07 0.81-0.67 0.99-1.17 0 0 0.53 1.74-0.84 2.12-1.05 0.29-2.33-0.46-3.65-2.25-1.49-2.02-4.6-6.46-6.32-7.46-1.65-0.96-4.26 0.64-6.82 2.52-2.38 1.74-4.15 2.89-6.27 2.78 0.17 1.35 0.75 5.18 2.17 9.4l0.12 0.35c0.39 1.15 0.68 2.02 0.93 2.97 0.42-0.09 0.9-0.03 1.44 0.32 0.63 0.41 0.8 0.91 0.81 1.29 0.03 0.87-0.64 1.92-1.43 2.81 0.12 0.91 0.18 1.63 0.2 2.14 1.23-0.35 4.31-1.42 7.07-3.84 0 0-0.51 2.1-3.58 3.66-0.2 0.1-0.4 0.19-0.59 0.28 0.37 0.98 1.19 3.09 1.89 4.55 0.86-1.62 2.41-2.94 4.39-3.68 3.25-1.22 6.94-0.63 9.85 1.57 4.38 3.3 4.74 8.33 4.67 10.5 1.12-0.05 1.88-0.04 1.99 0.06 0.38 0.3-0.15 0.9-0.45 1.05-0.3 0.15-0.3 0.53 0.08 0.6 0.38 0.08 0.83 0.68 0.45 0.75-0.37 0.08-0.82 0.23-0.67 0.45 0.15 0.23 0.83 0.98 0.15 1.05-0.67 0.08-6.37 0.08-10.65 0.68-1.91 0.27-3.76 0.71-5.29 1.15 1.63 2.62 6.23 8.55 13.98 7.62 2.77-0.33 4.92-1.63 6.4-3.85C1.38 11.75 1.75 6.02 0 0" style="fill-rule:nonzero;fill:#7cb2b0"/></g><g transform="translate(205.857,552.759)" id="g136"><path id="path138" d="m0 0c-0.46 0.58-0.99 1.11-1.57 1.58 0.19 0.39 0.46 0.95 0.77 1.6 1.82 3.75 5.6 11.54 9.11 20.13 0.73 1.8 1.4 3.51 2.01 5.15l2.23-0.64C8.48 16.55 2.66 5.15 0 0" style="fill-rule:nonzero;fill:#007236"/></g><g transform="translate(218.796,581.701)" id="g140"><path id="path142" d="m0 0-2.22 0.64c1.02 2.83 1.84 5.42 2.47 7.77L2.5 8.21C1.83 5.56 0.98 2.79 0 0" style="fill-rule:nonzero;fill:#007236"/></g><g transform="translate(195.52,540.945)" id="g144"><path id="path146" d="M0 0C0 0.42-0.06 0.82-0.15 1.2-2.12 1.39-4.25 1.65-5.97 1.95-7.04 2.13-8.09 2.35-9.07 2.56-9.53 1.82-9.8 0.94-9.8 0c0-2.71 2.19-4.9 4.9-4.9 2.71 0 4.9 2.19 4.9 4.9" style="fill-rule:nonzero;fill:#f15a40"/></g><g transform="translate(191.121,541.445)" id="g148"><path id="path150" d="m0 0c0-0.83 0.63-1.5 1.4-1.5 0.77 0 1.4 0.67 1.4 1.5 0 0.33-0.1 0.64-0.27 0.88C1.84 0.96 1.16 1.04 0.49 1.13 0.19 0.86 0 0.46 0 0" style="fill-rule:nonzero;fill:#fff"/></g><g id="g152"><g clip-path="url(#clipPath158)" id="g154"><g id="g160"><g clip-path="url(#clipPath166)" id="g162"/></g></g></g></g></g></svg>